<svg xmlns="http://www.w3.org/2000/svg" width="193.863" height="92" viewBox="0 0 193.863 92">
  <g id="Grupo_85" data-name="Grupo 85" transform="translate(-862.871 -178)">
    <g id="Grupo_82" data-name="Grupo 82" transform="translate(862.871 178)">
      <g id="Grupo_81" data-name="Grupo 81">
        <g id="Grupo_21" data-name="Grupo 21" transform="translate(21.945 48.29)">
          <path id="Trazado_45" data-name="Trazado 45" d="M887.286,270.1a2.429,2.429,0,0,1-2.345-3.045l.085-.314c.061-.231.123-.461.193-.689a114.788,114.788,0,0,1,5.3-14.839,57.882,57.882,0,0,1,7-11.7,112.916,112.916,0,0,1,7.789-8.671c.286-.3.581-.588.875-.878l.4-.393c.058-.057.118-.112.181-.163l.126-.126c.051-.054.1-.106.16-.155a2.711,2.711,0,0,1,.2-.2c.036-.03.071-.059.107-.087a1.923,1.923,0,0,1,.151-.134l.417-.344c.209-.17.406-.349.6-.528.337-.3.72-.647,1.155-.97a2.417,2.417,0,0,1,1.437-.473,2.415,2.415,0,0,1,2.28,1.622s.172.5.222.637c.06.159.112.321.164.485a2.462,2.462,0,0,0,.086.255,2.1,2.1,0,0,1,.318.9c.07.184.118.316.157.451l.495,1.486c.394,1.185.788,2.369,1.168,3.559l.149.465c.755,2.365,1.538,4.811,2.085,7.34a24.42,24.42,0,0,1,.609,4.475,4.94,4.94,0,0,1-1.751,4.2,3.467,3.467,0,0,1-2.113.8l-.227,0a10.742,10.742,0,0,1-3.384-.671c-1.305-.419-2.481-.909-3.618-1.382-.514-.215-1.028-.428-1.545-.633a6.057,6.057,0,0,0-2.225-.481,3.887,3.887,0,0,0-1.755.412,2.894,2.894,0,0,0-1.064,1.13c-1.26,1.99-2.489,4.066-3.676,6.074-1.091,1.843-2.219,3.75-3.383,5.61-.773,1.236-1.592,2.449-2.384,3.622-.345.512-.693,1.024-1.035,1.539a3.817,3.817,0,0,1-1.628,1.386,2.41,2.41,0,0,1-1.364.422Z" transform="translate(-884.861 -226.388)" fill="#fdfeff"/>
        </g>
        <g id="Grupo_22" data-name="Grupo 22" transform="translate(0 11.73)">
          <path id="Trazado_46" data-name="Trazado 46" d="M866.6,230.55a2.414,2.414,0,0,1-1.916-.946,8.6,8.6,0,0,1-1.542-3.207,2.4,2.4,0,0,1-.267-1.1v-2.545a2.415,2.415,0,0,1,.255-1.08c.025-.128.051-.254.081-.38a20.1,20.1,0,0,1,2.742-6.172,38.818,38.818,0,0,1,3.807-4.959c.121-.131.2-.211.281-.288l.008-.009a2.422,2.422,0,0,1,.643-.693l.005-.005a58.735,58.735,0,0,1,5.01-4.608c.639-.524,1.294-1.027,1.952-1.529.336-.257,1.067-.821,1.1-.843l.937-.663c.04-.028.219-.139.226-.143a76.456,76.456,0,0,1,9.135-5.444l2.06-1.028a2.468,2.468,0,0,1,.3-.124,5.461,5.461,0,0,0,.706-.32,2.374,2.374,0,0,1,.287-.128l.122-.042c1.167-.514,2.43-1.026,3.731-1.51a59.645,59.645,0,0,1,6.5-1.986l.832-.19.2-.04c1.2-.228,2.449-.462,3.734-.6a31.7,31.7,0,0,1,3.5-.211c.722,0,1.433.032,2.11.095a14.9,14.9,0,0,1,5.324,1.377,8.856,8.856,0,0,1,5.024,6.219,11.207,11.207,0,0,1-.345,5.618c-.078.263-.169.52-.261.777l-.1.272a2.414,2.414,0,0,1-2.282,1.626c-.075,0-.151,0-.226-.01l-.064.018a2.415,2.415,0,0,1-2.882-3.165,11.1,11.1,0,0,0,.673-2.556,3.343,3.343,0,0,0-1.688-3.534,9.65,9.65,0,0,0-4.595-1.087c-.266-.012-.529-.018-.793-.018a23.676,23.676,0,0,0-3.193.236,25.135,25.135,0,0,0-2.75.492l-.878.2a44.432,44.432,0,0,0-5.63,1.7c-1.123.41-2.13.786-3.082,1.241-.069.032-.14.062-.211.088a6.336,6.336,0,0,0-.746.328,2.449,2.449,0,0,1-.256.115l-.136.05a69.907,69.907,0,0,0-9.667,5.378l-.271.179c-.6.4-1.168.774-1.67,1.18a2.5,2.5,0,0,1-.23.166,5.548,5.548,0,0,0-.631.464,2.459,2.459,0,0,1-.383.263,54.074,54.074,0,0,0-5.08,4.311l-.255.245a15.011,15.011,0,0,0-1.253,1.3c-.037.045-.075.089-.115.132l-.575.614a27.11,27.11,0,0,0-3.9,5.329,10.7,10.7,0,0,0-1.458,4.21,3.454,3.454,0,0,0,.547,2.427,2.416,2.416,0,0,1-.028,2.821l-.528.718a2.418,2.418,0,0,1-1.922.984Z" transform="translate(-862.871 -189.754)" fill="#fdfeff"/>
        </g>
        <g id="Grupo_23" data-name="Grupo 23" transform="translate(0 8.555)">
          <path id="Trazado_47" data-name="Trazado 47" d="M871.564,214.158a2.412,2.412,0,0,1-1.766-.768,34.369,34.369,0,0,1-3.638-4.65A19.789,19.789,0,0,1,863.1,201.7a2.4,2.4,0,0,1-.231-1.028V198.3a2.415,2.415,0,0,1,.266-1.1,8.985,8.985,0,0,1,5.949-6.409q.472-.184.954-.328a5.71,5.71,0,0,1,5.167-3.886c.1,0,.193-.007.288-.007a5.742,5.742,0,0,1,5.316,3.64c.793.127,1.481.253,2.124.389l.848.188c.071.016.142.035.212.057l.072.024a54.353,54.353,0,0,1,7.226,2.287l.289.113a29.718,29.718,0,0,1,2.739,1.176,2.414,2.414,0,0,1,.022,4.294,9.981,9.981,0,0,1-1.376.608,2.416,2.416,0,0,1-2.044-.227,52.507,52.507,0,0,0-8.479-2.832l-.775-.165c-.563-.141-1.108-.238-1.663-.325a5.661,5.661,0,0,1-4.452,2.245h-.11a5.652,5.652,0,0,1-4.3-1.99,6.6,6.6,0,0,0-.691.306,3.373,3.373,0,0,0-1.926,3.481,10.374,10.374,0,0,0,1.093,3.6,27,27,0,0,0,4.279,6.076,2.414,2.414,0,0,1,.383,2.638,3.937,3.937,0,0,1-.875,1.169l-.075.073a2.426,2.426,0,0,1-1.763.766Z" transform="translate(-862.871 -186.572)" fill="#fdfeff"/>
        </g>
        <g id="Grupo_24" data-name="Grupo 24" transform="translate(17.15)">
          <path id="Trazado_48" data-name="Trazado 48" d="M883.3,195.543a2.4,2.4,0,0,1-.523-.058l-.831-.184a2.416,2.416,0,0,1-1.771-3.1,30.047,30.047,0,0,1,4.925-9.686,12.565,12.565,0,0,1,4.83-3.822,8.842,8.842,0,0,1,1.078-.379,2.388,2.388,0,0,1,1.183-.313h2.248a2.4,2.4,0,0,1,1.2.318,12.064,12.064,0,0,1,6.156,4.486,27.794,27.794,0,0,1,4.08,7.679c.146.391.276.786.407,1.182l.166.5a2.416,2.416,0,0,1-1.748,3.129l-.794.181a2.413,2.413,0,0,1-2.8-1.519l-.076-.21a26.714,26.714,0,0,0-2.986-6.5,9.581,9.581,0,0,0-2.786-2.952,3.544,3.544,0,0,0-1.9-.634,2.915,2.915,0,0,0-.593.063,5.03,5.03,0,0,0-2.654,1.657,22.229,22.229,0,0,0-4.513,8.5A2.416,2.416,0,0,1,883.3,195.543Z" transform="translate(-880.056 -178)" fill="#fdfeff"/>
        </g>
        <g id="Grupo_25" data-name="Grupo 25" transform="translate(13.952 22.841)">
          <path id="Trazado_49" data-name="Trazado 49" d="M890.641,238.37a2.467,2.467,0,0,1-.309-.023l-.065-.01h-.043a28.143,28.143,0,0,1-4.722-.4,18.841,18.841,0,0,1-5.671-1.837c-.22-.116-.431-.247-.64-.381a2.74,2.74,0,0,0-.263-.164,2.433,2.433,0,0,1-.714-.438s-.115-.1-.145-.133l-.489-.475a2.415,2.415,0,0,1,1.441-4.133c.081-.008.195-.014.275-.014a2.949,2.949,0,0,1,1.144.241,4.28,4.28,0,0,0,1.589.292h.235a17.658,17.658,0,0,0,1.84-.095,21.525,21.525,0,0,0,4.251-.886,20.511,20.511,0,0,0,9.411-6.237,19.541,19.541,0,0,0,2.982-5.168l.078-.177a2.418,2.418,0,0,1,.9-1.765l.415-.323.4-.3c.618-.458,1.2-.892,1.715-1.354a2.2,2.2,0,0,1,.247-.195,6.36,6.36,0,0,0,.587-.487c.06-.053.181-.156.245-.2l.036-.025c1.054-.9,2.136-1.881,3.4-3.1.462-.445,2.02-1.965,2.02-1.965.041-.046.157-.154.273-.259l.058-.054a2.387,2.387,0,0,1,.54-.521c1.19-1.187,2.46-2.463,3.7-3.766.147-.153.288-.31.43-.467a9.065,9.065,0,0,1,2.785-2.29,2.385,2.385,0,0,1,.434-.161,4.337,4.337,0,0,1,1.248-.212,3.207,3.207,0,0,1,1.082.187,2.418,2.418,0,0,1,1.219.969,3.78,3.78,0,0,1,.432,2.885,29.133,29.133,0,0,1-1.862,6.027l-2.156,5.2-.329.764c-.218.506-.436,1.012-.648,1.522l-4.661,11.238a2.414,2.414,0,0,1-.794,1.016c-.28.208-.538.444-.8.678s-.517.464-.787.684l-.185.153c-.025.028-.116.12-.136.138-.052.051-.106.1-.162.148a2.377,2.377,0,0,1-.429.285,2.247,2.247,0,0,1-.293.149,30.078,30.078,0,0,1-3.8,2.173,31.91,31.91,0,0,1-9.441,2.855,38.9,38.9,0,0,1-5.3.382,2.47,2.47,0,0,1-.42.037Z" transform="translate(-876.851 -200.887)" fill="#fdfeff"/>
        </g>
        <g id="Grupo_26" data-name="Grupo 26" transform="translate(46.467 33.86)">
          <path id="Trazado_50" data-name="Trazado 50" d="M912.077,233.793a2.413,2.413,0,0,1-2.311-1.721,4.1,4.1,0,0,1-.332-1.421,2.414,2.414,0,0,1,2.28-2.476,15.575,15.575,0,0,0,2.7-.331,5.9,5.9,0,0,0,2.6-1.179,3.273,3.273,0,0,0,1.045-3.358,15.392,15.392,0,0,0-3.194-6.607,2.414,2.414,0,0,1-.3-2.351l.374-.917a2.415,2.415,0,0,1,4.157-.551,22.861,22.861,0,0,1,4.269,8.149,10.4,10.4,0,0,1-.043,6.054,8.841,8.841,0,0,1-5,5.372,15.426,15.426,0,0,1-5.256,1.273l-.819.059C912.189,233.791,912.134,233.793,912.077,233.793Z" transform="translate(-909.432 -211.929)" fill="#fdfeff"/>
        </g>
        <g id="Grupo_49" data-name="Grupo 49" transform="translate(67.668 26.441)">
          <g id="Grupo_27" data-name="Grupo 27" transform="translate(111.373 0.273)">
            <path id="Trazado_51" data-name="Trazado 51" d="M1048.816,235.373a6.4,6.4,0,0,1-1.3-.131,5.389,5.389,0,0,1-3.6-2.6,9.778,9.778,0,0,1-1.332-6.171,3.791,3.791,0,0,1,4.4-3.245l-.186-.18c-.593-.576-1.185-1.152-1.75-1.753a11.051,11.051,0,0,1-.994-13.357,7.03,7.03,0,0,1,6.059-3.162c.172,0,.344,0,.52.015a6.555,6.555,0,0,1,5.8,4.442c.018.046.037.093.053.14a2.4,2.4,0,0,1,.6,1.591v3.672c0,.046,0,.092,0,.137s0,.68,0,.68a2.412,2.412,0,0,1-1.965,2.372,3.411,3.411,0,0,1-.419.213,3.2,3.2,0,0,1-1.257.273,2.7,2.7,0,0,1-2.7-2.723c-.035-.59-.077-1.183-.119-1.774-.047-.673-.094-1.345-.133-2.019a.855.855,0,0,0-.587-.824l-.017,0a6.471,6.471,0,0,0-.836,2.446l-.044.208a4.057,4.057,0,0,0,1.516,4.173l.556.509a21.691,21.691,0,0,1,3.366,3.582c2.234,3.192,2.582,6.356,1.034,9.406A7.648,7.648,0,0,1,1048.816,235.373Zm.53-9.253c.014.314.023.636.031.957.013.525.026,1.025.064,1.5a2.615,2.615,0,0,0,.269-1.006,2.92,2.92,0,0,0-.354-1.637C1049.354,226,1049.351,226.057,1049.346,226.12Z" transform="translate(-1042.276 -204.769)" fill="#fdfeff"/>
          </g>
          <g id="Grupo_28" data-name="Grupo 28" transform="translate(28.452 0.349)">
            <path id="Trazado_52" data-name="Trazado 52" d="M962.338,235.25a2.983,2.983,0,0,1-3.13-3.175c-.095-6.3.137-12.475.4-18.21.034-.711.061-1.42.088-2.13.026-.693.052-1.385.084-2.078a3.374,3.374,0,0,1,3.528-3.554,3.137,3.137,0,0,1,2.808,1.671,66.786,66.786,0,0,0,4.214,6.122l.244-.379c1.557-2.425,3.277-4.739,4.941-6.979a3.692,3.692,0,0,1,3.03-1.694,3.759,3.759,0,0,1,1.266.227A3.3,3.3,0,0,1,982,208.564l-.014,16.328c0,2.379-.006,4.758.014,7.137a3.152,3.152,0,0,1-.869,2.343,3.265,3.265,0,0,1-5.493-2.318q-.021-4.332-.069-8.664-.027-2.859-.05-5.719l-1.323,1.892a4.5,4.5,0,0,1-3.7,2.244,4.758,4.758,0,0,1-3.315-1.548,16.8,16.8,0,0,1-1.235-1.354c-.016.62-.165,6.447-.165,6.447q-.036,1.305-.076,2.611c-.041,1.364-.082,2.728-.11,4.093a3.073,3.073,0,0,1-3.047,3.192Z" transform="translate(-959.186 -204.845)" fill="#fdfeff"/>
          </g>
          <g id="Grupo_29" data-name="Grupo 29" transform="translate(83.033)">
            <path id="Trazado_53" data-name="Trazado 53" d="M1026.8,235.65a3.258,3.258,0,0,1-2.881-1.717,10.909,10.909,0,0,1-.836-2.072l-.317-1.012a32.5,32.5,0,0,0-1.475-4.113,10.674,10.674,0,0,0-.787-1.436c-.074,1.655-.1,3.307-.133,4.925q-.021,1.1-.044,2.2a3.044,3.044,0,0,1-3.149,3.178c-.093,0-.192,0-.294-.009a3.107,3.107,0,0,1-3-3.423l.086-5.361q.084-5.37.183-10.739c.027-1.306.083-2.611.14-3.915.039-.9.078-1.8.108-2.692a4.186,4.186,0,0,1,1.641-3.3,9.845,9.845,0,0,1,5.811-1.674,9.969,9.969,0,0,1,5.931,1.7,9.2,9.2,0,0,1,3.322,7.122,8.592,8.592,0,0,1-3.449,6.948,13.487,13.487,0,0,1-2.015,1.284,20.789,20.789,0,0,1,2.18,3.681,22.509,22.509,0,0,1,1.947,6.043,5.914,5.914,0,0,1,.072.934l0,.143a2.917,2.917,0,0,1-2.443,3.253A3.735,3.735,0,0,1,1026.8,235.65Zm-6.017-24.878c.005.769,0,1.538,0,2.306l0,1.31s.01,2.148.01,2.559a7.362,7.362,0,0,0,2.481-1.419,2.966,2.966,0,0,0-.069-4.8l-.112-.093c-.195-.008-.388-.013-.583-.013A9.454,9.454,0,0,0,1020.784,210.771Z" transform="translate(-1013.878 -204.495)" fill="#fdfeff"/>
          </g>
          <g id="Grupo_30" data-name="Grupo 30" transform="translate(96.488 0.602)">
            <path id="Trazado_54" data-name="Trazado 54" d="M1036.052,234.932a7.75,7.75,0,0,1-6.592-3.725,15.148,15.148,0,0,1-1.92-6.4,29.91,29.91,0,0,1,.88-11.4,12.078,12.078,0,0,1,4-6.4,8.78,8.78,0,0,1,5.532-1.911,10.838,10.838,0,0,1,2.4.281c2.558.584,4.277,2.768,4.6,5.846l.036.3a9.064,9.064,0,0,1,.09,1.075c.011,1.066.009,2.132.008,3.252l0,1.267a31.3,31.3,0,0,1-.746,9.044,19.2,19.2,0,0,1-2.137,5.19A7.132,7.132,0,0,1,1036.052,234.932Zm2.022-23.99a2.214,2.214,0,0,0-1.391.6,5.615,5.615,0,0,0-1.48,2.411,22.743,22.743,0,0,0-.951,10.369,8.687,8.687,0,0,0,1.218,3.932,1.916,1.916,0,0,0,.423.479,1.89,1.89,0,0,0,.405-.483,13.622,13.622,0,0,0,1.58-4.168,31.41,31.41,0,0,0,.563-7.107l.013-2.215c0-.763.01-1.527-.011-2.289A3.2,3.2,0,0,0,1038.074,210.942Z" transform="translate(-1027.36 -205.098)" fill="#fdfeff"/>
          </g>
          <g id="Grupo_31" data-name="Grupo 31" transform="translate(31.728 27.675)">
            <path id="Trazado_55" data-name="Trazado 55" d="M975.082,249.943a5.151,5.151,0,0,1-4.944-3.3q-.323-.723-.65-1.445,0,.7.01,1.4a3.135,3.135,0,0,1-.834,2.306,2.975,2.975,0,0,1-2.2.848h-.139c-2.837-.081-3.857-1.145-3.857-3.928v-8.362a4.841,4.841,0,0,1,3.381-4.96,6.481,6.481,0,0,1,1.86-.279,5.327,5.327,0,0,1,4.526,2.362,10.667,10.667,0,0,1,.963,1.913c.086.2.17.408.261.608l.023.048q0-.805-.011-1.61a3.006,3.006,0,0,1,.825-2.232,2.967,2.967,0,0,1,2.2-.842h.129c2.827.035,3.878,1.107,3.878,3.952v8.089c0,3.475-2.066,5.021-4,5.31A9.531,9.531,0,0,1,975.082,249.943Z" transform="translate(-962.469 -232.226)" fill="#fdfeff"/>
          </g>
          <g id="Grupo_32" data-name="Grupo 32" transform="translate(4.547 0.262)">
            <path id="Trazado_56" data-name="Trazado 56" d="M941.384,235.364a5.374,5.374,0,0,1-4.583-2.878,10.357,10.357,0,0,1-1.3-5.586,3.692,3.692,0,0,1,3.747-3.719,4.582,4.582,0,0,1,.748.063c-.5-.488-1.011-.97-1.52-1.452a10.146,10.146,0,0,1-2.989-9.849,9.485,9.485,0,0,1,2.735-5.359,7.422,7.422,0,0,1,4.879-1.825,6.512,6.512,0,0,1,6.043,3.855,11.03,11.03,0,0,1,.737,6.967,3.326,3.326,0,0,1-3.2,2.7c-.075.008-.194.013-.269.013a2.75,2.75,0,0,1-2.73-2.982c-.036-.508-.066-.972-.1-1.434-.053-.825-.107-1.649-.191-2.47-.013-.131-.223-.307-.311-.376a.6.6,0,0,0-.193-.11c.011.009-.038.055-.1.147-.627.987-.8,2.23-.917,4.478v.011l0-.008a3.7,3.7,0,0,0,.922,1.438c.6.646,1.238,1.265,1.872,1.886.488.477.975.955,1.451,1.443a9.96,9.96,0,0,1,3.163,8.463,7.676,7.676,0,0,1-7.665,6.594Zm.956-9.282.017.552c.019.6.038,1.214.011,1.862a.766.766,0,0,0,0,.134,2.923,2.923,0,0,0,.319-1.563,3.911,3.911,0,0,0-.348-1.068C942.343,226.027,942.342,226.054,942.341,226.082Z" transform="translate(-935.233 -204.758)" fill="#fdfeff"/>
          </g>
          <g id="Grupo_33" data-name="Grupo 33" transform="translate(94.67 27.866)">
            <path id="Trazado_57" data-name="Trazado 57" d="M1033.851,249.746a11.12,11.12,0,0,1-2.7-.3,6.9,6.9,0,0,1-5.19-5.095,12.422,12.422,0,0,1-.072-6.152,6.953,6.953,0,0,1,6.025-5.588,16.94,16.94,0,0,1,2.533-.192,16.6,16.6,0,0,1,2.534.195,7.009,7.009,0,0,1,6.066,5.856,12.685,12.685,0,0,1-.089,5.719c-.83,3.349-3.532,5.423-7.226,5.548-.176.006-.352.009-.538.009l-.928,0C1034.182,249.743,1034.019,249.746,1033.851,249.746Zm-1.055-7.153a2.453,2.453,0,0,0,.436.092,8.769,8.769,0,0,0,1.171.078h0a10.255,10.255,0,0,0,1.357-.094.748.748,0,0,0,.284-.077.909.909,0,0,0,.108-.309,5.2,5.2,0,0,0-.046-2.532c-.04-.14-.055-.193-.314-.21-.131-.009-.264-.011-.4-.011l-.934.011c-.087,0-.172,0-.255-.013l-.6,0c-.13,0-.26,0-.388.007-.447.022-.456.066-.528.4a5.37,5.37,0,0,0-.043,2.094A2.918,2.918,0,0,0,1032.8,242.592Z" transform="translate(-1025.539 -232.418)" fill="#fdfeff"/>
          </g>
          <g id="Grupo_34" data-name="Grupo 34" transform="translate(18.215 27.905)">
            <path id="Trazado_58" data-name="Trazado 58" d="M955.4,249.745a8.583,8.583,0,0,1-1.982-.23,5.3,5.3,0,0,1-4.37-4.34,5.944,5.944,0,0,1,.581-4.118,5.41,5.41,0,0,1-.658-2.636,5.48,5.48,0,0,1,5.214-5.852c.9-.077,1.886-.113,3.095-.113.579,0,1.16.008,1.739.016.559.007,1.117.015,1.675.015l.664,0a2.7,2.7,0,0,1,2.8,2.5c.139,1.264.268,2.455-.665,3.494-.043.049-.086.1-.131.139a2.942,2.942,0,0,1,.715,1.914,3.865,3.865,0,0,1-.75,2.959l.07.069a2.984,2.984,0,0,1,.821,2.225c-.039,2.907-1.123,3.96-4,3.96l-2.7,0c-.682,0-1.362,0-2.043.007Z" transform="translate(-948.928 -232.457)" fill="#fdfeff"/>
          </g>
          <g id="Grupo_35" data-name="Grupo 35" transform="translate(109.854 27.895)">
            <path id="Trazado_59" data-name="Trazado 59" d="M1047.422,249.737c-.041,0-.082,0-.124,0l-1.9,0c-.462,0-.924,0-1.386.012h-.111a2.807,2.807,0,0,1-2.941-2.958c0-2.027.511-3.178,1.76-3.707a5.588,5.588,0,0,1-1.957-5.013,5.506,5.506,0,0,1,5.711-5.549c1.175-.043,2.353-.075,3.529-.075,1.082,0,2.068.026,3.014.079a2.937,2.937,0,0,1,2.249,1.136,3.059,3.059,0,0,1,.466,2.536,2.821,2.821,0,0,1-.432,2.121,2.716,2.716,0,0,1-.655.667,5.891,5.891,0,0,1,2.035,5.141,5.773,5.773,0,0,1-5.9,5.6c-.457.017-.914.022-1.371.022C1049.051,249.75,1047.422,249.737,1047.422,249.737Z" transform="translate(-1040.754 -232.447)" fill="#fdfeff"/>
          </g>
          <g id="Grupo_36" data-name="Grupo 36" transform="translate(17.119 0.095)">
            <path id="Trazado_60" data-name="Trazado 60" d="M951.658,235.381a3.545,3.545,0,0,1-3.508-2.681,8.632,8.632,0,0,1-.308-2.417c0-1.53,0-6.316,0-6.316a143.408,143.408,0,0,1,.756-15.953,3.287,3.287,0,0,1,3.384-3.206c1.113-.014,2.219-.074,3.39-.137l1.407-.073c.125-.006.25-.009.373-.009a4.981,4.981,0,0,1,2.721.726,3,3,0,0,1,1.412,3.489,2.8,2.8,0,0,1-2.741,1.971c-.136,0-.274-.009-.407-.02-.425-.034-.808-.046-1.192-.046-.721,0-1.452.043-2.208.1-.077.726-.12,1.488-.13,2.305-.008.655-.012,1.308-.016,1.964,0,.771-.009,1.543-.02,2.313a5.747,5.747,0,0,1,1.432.209l.464.131a2.82,2.82,0,0,1,2.109,3.16,2.862,2.862,0,0,1-2.6,2.412l-.285.034c-.417.051-.843.1-1.279.142-.009.178-.019.356-.028.535a39.672,39.672,0,0,0-.051,5.2h1.825q1.031,0,2.062.006c.123-.008.223-.012.32-.012a2.826,2.826,0,0,1,2.909,2.805,2.89,2.89,0,0,1-2.77,3.116,40.539,40.539,0,0,1-5.215.255Z" transform="translate(-947.83 -204.59)" fill="#fdfeff"/>
          </g>
          <g id="Grupo_37" data-name="Grupo 37" transform="translate(71.737 0.1)">
            <path id="Trazado_61" data-name="Trazado 61" d="M1006.422,235.381a3.537,3.537,0,0,1-3.525-2.648,8.377,8.377,0,0,1-.326-2.259c0-1.235,0-5.628,0-5.628-.03-2.58-.008-6.592.267-10.894.1-1.639.263-3.282.414-4.872l.128-1.348a3.024,3.024,0,0,1,3.047-2.892c1.207-.033,2.41-.094,3.615-.154l1.767-.086c.081,0,.161-.006.241-.006a4.808,4.808,0,0,1,2.7.81,2.967,2.967,0,0,1,1.258,3.434,2.8,2.8,0,0,1-2.769,1.932c-.118,0-.237-.006-.355-.016-.411-.034-.823-.048-1.234-.048-.708,0-1.42.041-2.171.1-.139,1.267-.17,2.581-.189,4.008-.008.62-.005,1.239,0,1.859,0,.241,0,.481,0,.722a5.667,5.667,0,0,1,1.435.2l.093.025c.124.032.246.066.368.1a2.879,2.879,0,0,1,2.158,2.977,2.816,2.816,0,0,1-2.655,2.6c-.528.068-1.04.133-1.553.179a55.061,55.061,0,0,0-.078,5.731h3.855l.264,0a2.962,2.962,0,0,1,.2,5.921,41.51,41.51,0,0,1-5.19.252Z" transform="translate(-1002.559 -204.595)" fill="#fdfeff"/>
          </g>
          <g id="Grupo_38" data-name="Grupo 38" transform="translate(64.494 27.928)">
            <path id="Trazado_62" data-name="Trazado 62" d="M998.873,249.759a3.342,3.342,0,0,1-3.05-1.424,4.69,4.69,0,0,1-.5-2.659v-3.215c0-.053,0-.106.005-.158.024-.366.01-.833-.005-1.327a15.686,15.686,0,0,1,.151-3.325,6,6,0,0,1,5.838-5.107c1.243-.051,2.485-.052,3.686-.053.672,0,1.345,0,2.018-.011h0a2.786,2.786,0,0,1,2.91,2.8c.046,1.213.088,2.331-.829,3.284-.049.05-.1.1-.148.143.021.02.042.04.062.061a2.994,2.994,0,0,1,.811,2.244c-.057,2.781-1.15,3.835-3.9,3.835,0,0-3.393.007-3.592.006,0,.1,0,.2,0,.3,0,.549-.005,1.1.005,1.646a2.783,2.783,0,0,1-2.857,2.956C999.226,249.756,999.038,249.759,998.873,249.759Z" transform="translate(-995.302 -232.48)" fill="#fdfeff"/>
          </g>
          <g id="Grupo_39" data-name="Grupo 39" transform="translate(82.037 27.922)">
            <path id="Trazado_63" data-name="Trazado 63" d="M1021.713,249.766a14.859,14.859,0,0,1-2.3-.157,7.017,7.017,0,0,1-6.267-5.962,12.045,12.045,0,0,1,.25-6.029,6.972,6.972,0,0,1,6.444-5.077c.376-.022.753-.03,1.13-.03.289,0,1.1.012,1.222.014a2.345,2.345,0,0,1,.438-.042l1.509.008c.329,0,.657,0,.985-.015l.149,0a2.832,2.832,0,0,1,2.919,2.991,4,4,0,0,1-.9,3.142,3.954,3.954,0,0,1-3.132.909h-2.99a.858.858,0,0,0-1.228,1.069,4.574,4.574,0,0,0,.095,1.679.958.958,0,0,0,.138.359h0a1.428,1.428,0,0,0,.621.1q1.055.015,2.112.015c.741,0,1.482-.006,2.221-.022h0a2.856,2.856,0,0,1,3.062,3.042c-.007,1.232-.024,3.987-3.551,3.987l-.765-.007c-.34,0-.683.008-1.025.016C1022.472,249.757,1022.092,249.766,1021.713,249.766Z" transform="translate(-1012.88 -232.474)" fill="#fdfeff"/>
          </g>
          <g id="Grupo_40" data-name="Grupo 40" transform="translate(0 27.927)">
            <path id="Trazado_64" data-name="Trazado 64" d="M939.468,249.77a14.041,14.041,0,0,1-2.2-.149,7.208,7.208,0,0,1-6.526-7.05,13.331,13.331,0,0,1,.344-4.753,7.136,7.136,0,0,1,6.5-5.274c.377-.023.757-.03,1.136-.03.288,0,1.095.012,1.211.014a2.338,2.338,0,0,1,.445-.043l1.514,0c.361,0,.723,0,1.084-.01h0a2.783,2.783,0,0,1,2.928,2.8c.041,1.22.079,2.336-.84,3.287s-2.062.954-3.267.954l-2.006,0q-.585,0-1.17,0a1.859,1.859,0,0,0-.719.1,2.6,2.6,0,0,0-.154.6,5.387,5.387,0,0,0,.057,2.1.779.779,0,0,0,.118.3,1.282,1.282,0,0,0,.619.11q1.015.015,2.028.015,1.156,0,2.31-.02h0a2.854,2.854,0,0,1,3.025,2.973,4.5,4.5,0,0,1-.555,2.728,3.39,3.39,0,0,1-3.026,1.324l-.689-.005c-.343,0-.687.008-1.029.017C940.235,249.76,939.851,249.77,939.468,249.77Z" transform="translate(-930.677 -232.479)" fill="#fdfeff"/>
          </g>
          <g id="Grupo_41" data-name="Grupo 41" transform="translate(62.589 0.622)">
            <path id="Trazado_65" data-name="Trazado 65" d="M997.283,235.161q-.326,0-.657-.017a3.055,3.055,0,0,1-3.057-3.1c-.145-4.692-.2-9.384-.166-13.945v-2.477c0-2.423,0-4.847-.012-7.27a3.179,3.179,0,0,1,.865-2.362,3.05,3.05,0,0,1,2.242-.872l.134,0c2.933.088,3.374,2.039,3.375,3.195q.009,5.711,0,11.423v.564c0,1.971-.005,3.942-.025,5.913q-.012,1.242-.041,2.486c.315-.022.64-.036.971-.036.132,0,.264,0,.4.007,2.959.1,3.377,2.094,3.434,2.7a2.858,2.858,0,0,1-2.75,3.107A20.274,20.274,0,0,1,997.283,235.161Z" transform="translate(-993.393 -205.118)" fill="#fdfeff"/>
          </g>
          <g id="Grupo_42" data-name="Grupo 42" transform="translate(53.357 0.633)">
            <path id="Trazado_66" data-name="Trazado 66" d="M987.641,235.156a3.12,3.12,0,0,1-3.275-3.252c-.021-.887-.056-1.772-.092-2.659-.052-1.338-.107-2.723-.115-4.106-.022-3.967-.018-7.935-.013-11.9l0-4.839a2.921,2.921,0,0,1,3.249-3.269c2.225.008,3.362,1.154,3.359,3.312l-.033,20.244c.276-.025.565-.042.864-.042a6.251,6.251,0,0,1,1.971.3,2.415,2.415,0,0,1,1.431,3.329,3.685,3.685,0,0,1-1.322,1.8,2.374,2.374,0,0,1-.742.343,19.022,19.022,0,0,1-4.994.746Z" transform="translate(-984.142 -205.129)" fill="#fdfeff"/>
          </g>
          <g id="Grupo_43" data-name="Grupo 43" transform="translate(47.156 27.924)">
            <path id="Trazado_67" data-name="Trazado 67" d="M985.3,249.753c-2.729-.087-3.742-1.151-3.742-3.925v-3.6s-.01-2.228-.01-2.712l-.636,0a2.809,2.809,0,0,1-2.944-2.737c-.068-1.23-.131-2.358.786-3.327s2.053-.971,3.254-.971l3.723,0q1.695,0,3.389-.013h.021a3.074,3.074,0,0,1,2.291.86,3,3,0,0,1,.816,2.257c-.061,2.773-1.055,3.84-3.641,3.917,0,.865,0,1.729,0,2.594,0,1.487,0,2.975.014,4.463a3.176,3.176,0,0,1-.841,2.335,3.006,3.006,0,0,1-2.221.856Z" transform="translate(-977.928 -232.476)" fill="#fdfeff"/>
          </g>
          <g id="Grupo_44" data-name="Grupo 44" transform="translate(48.953 0.813)">
            <path id="Trazado_68" data-name="Trazado 68" d="M983.033,235.53a3.379,3.379,0,0,1-.453-.031,2.965,2.965,0,0,1-2.851-3.047V231.7c.009-3.888.018-7.909.137-11.88q.067-2.248.123-4.5l.1-3.509c.014-.491.032-.982.051-1.473.026-.676.052-1.35.064-2.026a2.91,2.91,0,0,1,2.939-3.006c.063,0,.2,0,.26.01a2.964,2.964,0,0,1,2.993,3.056c-.01,1.261-.006,2.521,0,3.78l.005,5.372c.029,3.635.06,7.412-.16,11.207-.046.8-.122,1.607-.2,2.41-.052.54-.1,1.08-.145,1.62A2.837,2.837,0,0,1,983.033,235.53Z" transform="translate(-979.729 -205.31)" fill="#fdfeff"/>
          </g>
          <g id="Grupo_45" data-name="Grupo 45" transform="translate(77.041 27.919)">
            <path id="Trazado_69" data-name="Trazado 69" d="M1011.943,249.753c-2.971,0-4.056-1.108-4.056-4.07V243.15c0-2.523,0-5.046-.014-7.569a3.044,3.044,0,0,1,.837-2.261,2.994,2.994,0,0,1,2.215-.849l.14,0c2.808.041,3.851,1.118,3.851,3.974v6.144c0,1.385,0,2.769.009,4.155a2.824,2.824,0,0,1-2.973,3.008Z" transform="translate(-1007.874 -232.471)" fill="#fdfeff"/>
          </g>
          <g id="Grupo_46" data-name="Grupo 46" transform="translate(13.256 27.921)">
            <path id="Trazado_70" data-name="Trazado 70" d="M947.943,249.754c-2.913-.029-3.973-1.113-3.973-4l0-6.143c0-1.36.006-2.719-.013-4.079a2.857,2.857,0,0,1,3.012-3.06c2.928,0,3.992,1.07,3.992,3.937v2.447c0,2.622,0,5.242.012,7.863a2.976,2.976,0,0,1-.821,2.2,2.929,2.929,0,0,1-2.163.832Z" transform="translate(-943.96 -232.473)" fill="#fdfeff"/>
          </g>
          <g id="Grupo_47" data-name="Grupo 47" transform="translate(58.917 27.92)">
            <path id="Trazado_71" data-name="Trazado 71" d="M993.767,249.751c-2.959,0-4.042-1.089-4.042-4v-2.6c0-2.523,0-5.047-.013-7.57a3.043,3.043,0,0,1,.835-2.259,2.988,2.988,0,0,1,2.208-.847l.155,0c2.792.048,3.83,1.108,3.83,3.913l0,6.268c0,1.363-.006,2.726.013,4.089a2.821,2.821,0,0,1-2.975,3.007Z" transform="translate(-989.713 -232.472)" fill="#fdfeff"/>
          </g>
          <g id="Grupo_48" data-name="Grupo 48" transform="translate(58.193 23.311)">
            <path id="Trazado_72" data-name="Trazado 72" d="M992.274,236.745a5.3,5.3,0,0,1-.854-.073l-.137,0a2.414,2.414,0,0,1-2.243-2.914,5.635,5.635,0,0,1,.723-1.717c.055-.095.118-.188.163-.286a2.421,2.421,0,0,1,.6-1.253l.039-.091a3.732,3.732,0,0,1,3.688-2.555,6.378,6.378,0,0,1,.753.048s.423-.012.569-.012a2.414,2.414,0,0,1,2.095,3.615c-.177.309-.359.608-.539.9a12.377,12.377,0,0,0-.835,1.513A4.221,4.221,0,0,1,992.274,236.745Z" transform="translate(-988.987 -227.853)" fill="#fdfeff"/>
          </g>
        </g>
        <g id="Grupo_50" data-name="Grupo 50" transform="translate(12.839 27.991)">
          <path id="Trazado_73" data-name="Trazado 73" d="M881.708,235.25a26.47,26.47,0,0,1-2.813-.225,2.815,2.815,0,0,1-1.072-.35,4.777,4.777,0,0,1-1.927-2.533,2.415,2.415,0,0,1-.154-.831l-.006-.82a2.459,2.459,0,0,1,.086-.655,5.012,5.012,0,0,1,2.646-3.133,16.241,16.241,0,0,1,1.978-.851l.4-.15c.057-.022.115-.042.173-.059,0,0,.831-.249.864-.257.5-.129,1-.253,1.506-.378,1.313-.325,2.554-.634,3.778-1.013l.209-.063a8.715,8.715,0,0,1-.654-.589,12.42,12.42,0,0,1-3.407-6.333,9.625,9.625,0,0,1,.251-5.393,8.711,8.711,0,0,1,8.177-5.569,9.508,9.508,0,0,1,1.413.107,11.175,11.175,0,0,1,5.179,2.226,13.071,13.071,0,0,1,4.277,5.341,10.5,10.5,0,0,1,.414,6.9,10.845,10.845,0,0,1-1.125,2.751,25.931,25.931,0,0,1-3.073,4.006,27.1,27.1,0,0,1-4.321,3.81,21.53,21.53,0,0,1-12.558,4.06Z" transform="translate(-875.736 -206.048)" fill="#fdfeff"/>
        </g>
        <g id="Grupo_51" data-name="Grupo 51" transform="translate(14.498 50.356)">
          <path id="Trazado_74" data-name="Trazado 74" d="M887.263,270.078a2.414,2.414,0,0,1-1.6-.6,3.151,3.151,0,0,1-1.03-2.284,23.129,23.129,0,0,1,.136-4.246l.018-.183c.147-1.538.359-3.037.568-4.428l2.222-14.925-.7-.494c-.043-.03-.151-.115-.16-.123a2.46,2.46,0,0,1-.234-.17l-.785-.641c-.593-.483-1.186-.965-1.771-1.456a74.424,74.424,0,0,1-5.827-5.44,2.658,2.658,0,0,1-.441-.63,2.415,2.415,0,0,1,3.057-3.333,6.343,6.343,0,0,1,1.086.59c.091.058.181.12.276.17a14.076,14.076,0,0,0,4.237,1.35,23.186,23.186,0,0,0,3.907.332h.167c.1,0,.2,0,.293.014a3.288,3.288,0,0,1,.331-.016h.116a33.7,33.7,0,0,0,4.719-.336,27.076,27.076,0,0,0,8.014-2.425,25.152,25.152,0,0,0,3.2-1.833,2.681,2.681,0,0,1,1.558-.509,2.458,2.458,0,0,1,1.683,4.213c-.008.009-.25.252-.262.263-.061.06-.124.117-.189.17l-.3.293c-.266.263-.533.527-.793.8a108.7,108.7,0,0,0-7.464,8.3,53.084,53.084,0,0,0-6.412,10.741,110.98,110.98,0,0,0-5.07,14.225c-.052.173-.1.349-.146.525l-.086.32a2.411,2.411,0,0,1-2.328,1.774Z" transform="translate(-877.399 -228.458)" fill="#fdfeff"/>
        </g>
        <g id="Grupo_52" data-name="Grupo 52" transform="translate(0.923 45.964)">
          <path id="Trazado_75" data-name="Trazado 75" d="M869.457,235.523a5.49,5.49,0,0,1-4.194-1.923,5.594,5.594,0,0,1-1.056-5.909c.038-.1.079-.2.12-.3a3.259,3.259,0,0,1,.327-.611l.528-.718a2.359,2.359,0,0,1,.371-.4l.137-.118a5.736,5.736,0,0,1,9.33,2.567,6.1,6.1,0,0,1,.183,2.671,2.418,2.418,0,0,1-.1.443l-.26.772a2.438,2.438,0,0,1-.173.394,5.726,5.726,0,0,1-3.805,2.975A6.345,6.345,0,0,1,869.457,235.523Z" transform="translate(-863.795 -224.057)" fill="#fdfeff"/>
        </g>
        <g id="Grupo_53" data-name="Grupo 53" transform="translate(13.776 37.985)">
          <path id="Trazado_76" data-name="Trazado 76" d="M881.97,235.752a9.22,9.22,0,0,1-3.16-.573,2.391,2.391,0,0,1-.549-.175,2.77,2.77,0,0,1-1.361-1.346,2.416,2.416,0,0,1,2.468-3.419,23.591,23.591,0,0,0,2.392.2h.187a16.56,16.56,0,0,0,9.785-3.186,22.224,22.224,0,0,0,3.555-3.142,21.08,21.08,0,0,0,2.5-3.253,6.557,6.557,0,0,0,.584-1.513,2.415,2.415,0,0,1,1.452-1.577l2.128-1.338a2.414,2.414,0,0,1,3.7,1.868,4.228,4.228,0,0,1-.431,2.075,24.459,24.459,0,0,1-3.8,6.5,25.808,25.808,0,0,1-4.4,4.053,25.529,25.529,0,0,1-7.2,3.623,26.4,26.4,0,0,1-5.207,1.086,22.587,22.587,0,0,1-2.342.12Z" transform="translate(-876.675 -216.062)" fill="#fdfeff"/>
        </g>
        <g id="Grupo_54" data-name="Grupo 54" transform="translate(7.263 49.943)">
          <path id="Trazado_77" data-name="Trazado 77" d="M875.5,233.875c-.532,0-1.064-.017-1.6-.058a14.246,14.246,0,0,1-1.821-.221,2.415,2.415,0,0,1-1.8-3.135l.26-.769a2.415,2.415,0,0,1,2.287-1.648,2.57,2.57,0,0,1,.326.022,16.084,16.084,0,0,0,1.684.154c.232.007.462.01.693.01.765,0,1.569-.039,2.388-.117.076-.007.152-.01.228-.01a2.414,2.414,0,0,1,2.414,2.4l.006.82a2.416,2.416,0,0,1-2.225,2.424C877.563,233.805,876.543,233.875,875.5,233.875Z" transform="translate(-870.148 -228.045)" fill="#fdfeff"/>
        </g>
        <g id="Grupo_55" data-name="Grupo 55" transform="translate(22.949 60.422)">
          <path id="Trazado_78" data-name="Trazado 78" d="M890.177,244.794a2.406,2.406,0,0,1-1.109-.27,11.3,11.3,0,0,1-2.32-1.641,2.46,2.46,0,0,1-.78-2.6,2.416,2.416,0,0,1,3.715-1.3l1.863,1.323a2.61,2.61,0,0,1,.977,1.494,2.416,2.416,0,0,1-2.346,2.988Z" transform="translate(-885.866 -238.545)" fill="#fdfeff"/>
        </g>
        <g id="Grupo_56" data-name="Grupo 56" transform="translate(22.701 60.236)">
          <path id="Trazado_79" data-name="Trazado 79" d="M888.284,243.38a2.588,2.588,0,0,1-1.971-.911,2.414,2.414,0,0,1,2.474-3.989,2.827,2.827,0,0,1,1.583,1.252,2.414,2.414,0,0,1-1.948,3.645C888.378,243.379,888.326,243.38,888.284,243.38Z" transform="translate(-885.618 -238.358)" fill="#fdfeff"/>
        </g>
        <g id="Grupo_57" data-name="Grupo 57" transform="translate(14.457 52.789)">
          <path id="Trazado_80" data-name="Trazado 80" d="M879.818,235.783a2.413,2.413,0,0,1-1.6-.61l-.054-.049a2.442,2.442,0,0,1-.637-2.686,2.407,2.407,0,0,1,2.23-1.543h.029a2.523,2.523,0,0,1,2.45,2.446,2.412,2.412,0,0,1-2.414,2.441Z" transform="translate(-877.358 -230.896)" fill="#fdfeff"/>
        </g>
        <g id="Grupo_58" data-name="Grupo 58" transform="translate(45.783 52.654)">
          <path id="Trazado_81" data-name="Trazado 81" d="M908.762,230.793l.114-.032c.044.095-.048.114-.088.161l-.041-.05Z" transform="translate(-908.747 -230.761)" fill="#fdfeff"/>
        </g>
        <g id="Grupo_59" data-name="Grupo 59" transform="translate(43.494 50.162)">
          <path id="Trazado_82" data-name="Trazado 82" d="M908.912,233.185a2.615,2.615,0,0,1-1.106-.257,2.414,2.414,0,0,1-1.057-3.326,2.476,2.476,0,0,1,3.373-1.041,2.413,2.413,0,0,1,1.079,3.095A2.479,2.479,0,0,1,908.912,233.185Z" transform="translate(-906.454 -228.264)" fill="#fdfeff"/>
        </g>
        <g id="Grupo_60" data-name="Grupo 60" transform="translate(43.019 50.652)">
          <path id="Trazado_83" data-name="Trazado 83" d="M908.285,233.645a2.414,2.414,0,0,1-2.307-2.44,2.526,2.526,0,0,1,2.421-2.449h.057a2.414,2.414,0,0,1,2.382,2.025,2.46,2.46,0,0,1-2.439,2.868C908.363,233.648,908.321,233.647,908.285,233.645Z" transform="translate(-905.978 -228.755)" fill="#fdfeff"/>
        </g>
        <g id="Grupo_61" data-name="Grupo 61" transform="translate(42.957 50.745)">
          <path id="Trazado_84" data-name="Trazado 84" d="M908.349,233.694a2.743,2.743,0,0,1-.326-.021,2.415,2.415,0,0,1-1.129-4.337,2.531,2.531,0,0,1,1.491-.488,2.36,2.36,0,0,1,1.033.234,2.41,2.41,0,0,1,1.392,2.075,2.453,2.453,0,0,1-2.461,2.538Z" transform="translate(-905.915 -228.848)" fill="#fdfeff"/>
        </g>
        <g id="Grupo_62" data-name="Grupo 62" transform="translate(43.609 50.115)">
          <path id="Trazado_85" data-name="Trazado 85" d="M908.982,233.111a2.414,2.414,0,0,1-2.324-1.763,2.522,2.522,0,0,1,.4-2.162,2.489,2.489,0,0,1,1.957-.969,2.756,2.756,0,0,1,.471.044,2.415,2.415,0,0,1,1.971,2.459,2.527,2.527,0,0,1-2.448,2.39Z" transform="translate(-906.569 -228.217)" fill="#fdfeff"/>
        </g>
        <g id="Grupo_63" data-name="Grupo 63" transform="translate(43.665 50.053)">
          <path id="Trazado_86" data-name="Trazado 86" d="M909.041,233.053a2.413,2.413,0,0,1-2.154-1.326,2.446,2.446,0,0,1,1.227-3.366,2.414,2.414,0,0,1,3.274,1.479,2.459,2.459,0,0,1-2.04,3.195A2.455,2.455,0,0,1,909.041,233.053Z" transform="translate(-906.624 -228.155)" fill="#fdfeff"/>
        </g>
        <g id="Grupo_64" data-name="Grupo 64" transform="translate(43.138 50.533)">
          <path id="Trazado_87" data-name="Trazado 87" d="M908.529,233.531a2.684,2.684,0,0,1-.369-.028,2.413,2.413,0,0,1-2.063-2.416,2.526,2.526,0,0,1,2.42-2.45h.058a2.414,2.414,0,0,1,2.385,2.045,2.533,2.533,0,0,1-.561,1.992A2.5,2.5,0,0,1,908.529,233.531Z" transform="translate(-906.097 -228.636)" fill="#fdfeff"/>
        </g>
        <g id="Grupo_65" data-name="Grupo 65" transform="translate(43.315 50.351)">
          <path id="Trazado_88" data-name="Trazado 88" d="M908.723,233.362a2.531,2.531,0,0,1-1.437-.462,2.415,2.415,0,0,1-1.009-2.079,2.464,2.464,0,0,1,.047-.374l-.009,0v-.006a2.415,2.415,0,0,1,2.153-1.971l.079-.008c.065,0,.131-.007.2-.007a2.413,2.413,0,0,1,1.89.913,2.489,2.489,0,0,1,.525,1.815,2.449,2.449,0,0,1-.9,1.645A2.617,2.617,0,0,1,908.723,233.362Z" transform="translate(-906.274 -228.453)" fill="#fdfeff"/>
        </g>
        <g id="Grupo_66" data-name="Grupo 66" transform="translate(43.079 50.593)">
          <path id="Trazado_89" data-name="Trazado 89" d="M908.47,233.59a2.668,2.668,0,0,1-.389-.031,2.413,2.413,0,0,1-2.043-2.442,2.526,2.526,0,0,1,2.449-2.421h.029a2.415,2.415,0,0,1,2.388,2.063,2.535,2.535,0,0,1-.571,1.981A2.5,2.5,0,0,1,908.47,233.59Z" transform="translate(-906.037 -228.696)" fill="#fdfeff"/>
        </g>
        <g id="Grupo_67" data-name="Grupo 67" transform="translate(43.256 50.416)">
          <path id="Trazado_90" data-name="Trazado 90" d="M908.647,233.412a2.692,2.692,0,0,1-.369-.027,2.414,2.414,0,0,1-2.063-2.417,2.525,2.525,0,0,1,2.449-2.449h.029a2.414,2.414,0,0,1,2.388,2.063,2.534,2.534,0,0,1-.57,1.981A2.5,2.5,0,0,1,908.647,233.412Z" transform="translate(-906.215 -228.518)" fill="#fdfeff"/>
        </g>
        <g id="Grupo_68" data-name="Grupo 68" transform="translate(43.197 50.474)">
          <path id="Trazado_91" data-name="Trazado 91" d="M908.588,233.471a2.657,2.657,0,0,1-.388-.03,2.415,2.415,0,0,1-2.044-2.414,2.524,2.524,0,0,1,2.45-2.449h.028a2.414,2.414,0,0,1,2.388,2.064,2.532,2.532,0,0,1-.57,1.98A2.5,2.5,0,0,1,908.588,233.471Z" transform="translate(-906.156 -228.577)" fill="#fdfeff"/>
        </g>
        <g id="Grupo_69" data-name="Grupo 69" transform="translate(28.061 16.633)">
          <path id="Trazado_92" data-name="Trazado 92" d="M912.478,212.731a2.373,2.373,0,0,1-1.645-.649c-1.315-1.253-2.343-2.173-3.333-2.978l-.323-.263c-.661-.54-1.284-1.05-1.928-1.484a2.48,2.48,0,0,1-.239-.184,4.126,4.126,0,0,0-.562-.414,2.56,2.56,0,0,1-.219-.151c-.9-.694-1.845-1.31-2.989-2.045a70.729,70.729,0,0,0-8.688-4.741c-.085-.04-.164-.08-.243-.121a2.465,2.465,0,0,1-1.321-2.158,2.411,2.411,0,0,1,1.273-2.152,11.379,11.379,0,0,1,1.315-.58,2.427,2.427,0,0,1,1.9.1l.753.373c.975.48,1.951.961,2.91,1.476a78.2,78.2,0,0,1,7.564,4.626s.217.14.25.164l.91.649.254.192c1.174.891,2.387,1.811,3.555,2.808s2.163,1.879,3.117,2.847a2.413,2.413,0,0,1,.281,3.045,4.442,4.442,0,0,1-.74.823l-.089.081A2.5,2.5,0,0,1,912.478,212.731Z" transform="translate(-890.989 -194.667)" fill="#fdfeff"/>
        </g>
        <g id="Grupo_70" data-name="Grupo 70" transform="translate(6.864 31.356)">
          <path id="Trazado_93" data-name="Trazado 93" d="M884.974,224.923a3.076,3.076,0,0,1-1.61-.468c-1.014-.614-1.99-1.27-2.933-1.9l-.687-.461-.983-.7-.877-.673c-.84-.644-1.681-1.288-2.5-1.966a58.317,58.317,0,0,1-4.975-4.645,2.415,2.415,0,0,1-.009-3.317l.572-.609a2.417,2.417,0,0,1,1.758-.763h0a2.413,2.413,0,0,1,1.757.76,53.159,53.159,0,0,0,6.726,5.96,2.444,2.444,0,0,1,.375.264,3.711,3.711,0,0,0,.532.394,2.478,2.478,0,0,1,.313.214c.53.427,1.124.82,1.753,1.238l.417.276c.387.259.782.508,1.177.755l.566.358a3,3,0,0,1,1.367,1.9,2.823,2.823,0,0,1-2.748,3.385Z" transform="translate(-869.749 -209.42)" fill="#fdfeff"/>
        </g>
        <g id="Grupo_71" data-name="Grupo 71" transform="translate(14.455 24.252)">
          <path id="Trazado_94" data-name="Trazado 94" d="M880.945,221.294a2.409,2.409,0,0,1-1.2-.319,8.307,8.307,0,0,1-1.27-.915,2.417,2.417,0,0,1-.841-1.69l-.062-.992c-.05-.781-.1-1.562-.135-2.344-.085-1.882-.1-3.46-.055-4.964.035-1.071.07-2.141.141-3.208l.117-1.659a2.417,2.417,0,0,1,.854-1.677,10.537,10.537,0,0,1,1.165-.853,2.414,2.414,0,0,1,3.695,2.215l-.192,2.676c-.065.906-.09,1.815-.115,2.722-.043,1.516,0,3.044.037,4.337.034,1.057.116,2.107.2,3.217l.066.857a2.415,2.415,0,0,1-2.407,2.6Z" transform="translate(-877.355 -202.301)" fill="#fdfeff"/>
        </g>
        <g id="Grupo_72" data-name="Grupo 72" transform="translate(38.29 13.336)">
          <path id="Trazado_95" data-name="Trazado 95" d="M906.489,206.58a2.417,2.417,0,0,1-1.4-.447l-.914-.652a2.418,2.418,0,0,1-1-1.689,54.558,54.558,0,0,0-1.788-8.989l-.035-.1a2.415,2.415,0,0,1,1.773-3.1l.814-.183a2.44,2.44,0,0,1,.526-.058,2.414,2.414,0,0,1,2.31,1.717,57.05,57.05,0,0,1,1.792,8.218c.089.6.158,1.2.226,1.8l.089.774a2.415,2.415,0,0,1-2.4,2.7Z" transform="translate(-901.239 -191.363)" fill="#fdfeff"/>
        </g>
        <g id="Grupo_73" data-name="Grupo 73" transform="translate(14.862 19.399)">
          <path id="Trazado_96" data-name="Trazado 96" d="M880.178,206.585a2.414,2.414,0,0,1-2.4-2.651c.148-1.5.371-2.957.55-4.056a2.871,2.871,0,0,1,2.829-2.441,2.934,2.934,0,0,1,.744.1A2.829,2.829,0,0,1,883.9,201c-.111.477-.181,1-.253,1.564l-.081.608c-.016.111-.024.221-.034.331l-.022.24a2.417,2.417,0,0,1-1.01,1.738l-.93.658A2.413,2.413,0,0,1,880.178,206.585Z" transform="translate(-877.764 -197.438)" fill="#fdfeff"/>
        </g>
        <g id="Grupo_74" data-name="Grupo 74" transform="translate(16.12 13.329)">
          <path id="Trazado_97" data-name="Trazado 97" d="M881.87,199.564a2.838,2.838,0,0,1-1.013-.189,2.8,2.8,0,0,1-1.756-3.3c.219-.969.485-1.911.742-2.823l.038-.134a2.415,2.415,0,0,1,2.321-1.758,2.472,2.472,0,0,1,.509.054l.831.179a2.415,2.415,0,0,1,1.8,3.066c-.234.762-.454,1.577-.695,2.56a4.269,4.269,0,0,1-.119.418A2.818,2.818,0,0,1,881.87,199.564Z" transform="translate(-879.024 -191.356)" fill="#fdfeff"/>
        </g>
        <g id="Grupo_75" data-name="Grupo 75" transform="translate(40.362 24.249)">
          <path id="Trazado_98" data-name="Trazado 98" d="M905.92,218.8a2.412,2.412,0,0,1-2.412-2.507l.046-1.122c.034-.8.069-1.6.087-2.407.026-1.2.006-2.5-.062-3.969-.034-.716-.085-1.432-.135-2.148l-.123-1.773a2.414,2.414,0,0,1,3.665-2.228,8.979,8.979,0,0,1,1.229.9,2.41,2.41,0,0,1,.819,1.669l.066,1c.051.751.1,1.5.133,2.255.06,1.408.127,3,.06,4.629-.025.6-.041,1.2-.056,1.8l-.023.828a2.414,2.414,0,0,1-.811,1.736,11.338,11.338,0,0,1-1.114.906A2.413,2.413,0,0,1,905.92,218.8Z" transform="translate(-903.315 -202.298)" fill="#fdfeff"/>
        </g>
        <g id="Grupo_76" data-name="Grupo 76" transform="translate(25.354 55.494)">
          <path id="Trazado_99" data-name="Trazado 99" d="M890.636,238.435a2.414,2.414,0,0,1,.054-4.828l.185,0a2.414,2.414,0,0,1-.055,4.828Z" transform="translate(-888.277 -233.607)" fill="#fdfeff"/>
        </g>
        <g id="Grupo_77" data-name="Grupo 77" transform="translate(45.731 52.686)">
          <path id="Trazado_100" data-name="Trazado 100" d="M908.747,230.872a.228.228,0,0,0-.052.011l.067-.09Z" transform="translate(-908.695 -230.793)" fill="#fdfeff"/>
        </g>
        <g id="Grupo_78" data-name="Grupo 78" transform="translate(40.34 40.346)">
          <path id="Trazado_101" data-name="Trazado 101" d="M903.293,218.483l.067-.055Z" transform="translate(-903.293 -218.428)" fill="#fdfeff"/>
        </g>
        <g id="Grupo_79" data-name="Grupo 79" transform="translate(14.862 38.946)">
          <path id="Trazado_102" data-name="Trazado 102" d="M881.711,230.393a2.414,2.414,0,0,1-2.278-1.619,15.882,15.882,0,0,1-.526-2.029l-.084-.391c-.387-1.777-.7-3.667-.979-5.944-.022-.185-.038-.366-.053-.548l-.018-.2a2.414,2.414,0,0,1,3.8-2.192l.925.659a2.413,2.413,0,0,1,1,1.723,50.824,50.824,0,0,0,.892,5.468c.091.428.194.853.3,1.279l.141.6a2.415,2.415,0,0,1-1.654,2.861l-.774.233A2.39,2.39,0,0,1,881.711,230.393Z" transform="translate(-877.763 -217.025)" fill="#fdfeff"/>
        </g>
        <g id="Grupo_80" data-name="Grupo 80" transform="translate(22.341 43.015)">
          <path id="Trazado_103" data-name="Trazado 103" d="M890.26,227.963a2.418,2.418,0,0,1-1.038-.235c-.875-.417-1.7-.867-2.472-1.293a2.894,2.894,0,0,1-1.407-1.819,2.832,2.832,0,0,1,2.724-3.514,2.886,2.886,0,0,1,1.345.335l3.043,1.6a2.414,2.414,0,0,1-.328,4.416l-1.072.373A2.392,2.392,0,0,1,890.26,227.963Z" transform="translate(-885.258 -221.102)" fill="#fdfeff"/>
        </g>
      </g>
    </g>
    <g id="Grupo_84" data-name="Grupo 84" transform="translate(865.286 180.414)">
      <path id="Trazado_104" data-name="Trazado 104" d="M887.291,267.688l-.012-.009,0-.014c.084-.3.159-.609.25-.908a113.328,113.328,0,0,1,5.185-14.532A55.714,55.714,0,0,1,899.424,241a111.081,111.081,0,0,1,7.627-8.485c.406-.421.827-.827,1.241-1.24.038,0,.068,0,.067-.049l-.005,0c.044,0,.072-.013.064-.064l-.005,0c.05.007.071-.014.064-.064l-.005,0c.05.007.072-.014.064-.064l0,0q.075.012.063-.063l0,0c.05.007.071-.014.064-.064l0,0c.037.027.065,0,.094-.017.04-.048.132-.067.088-.162l0,0c.073.036.1-.015.12-.068l-.006,0a.058.058,0,0,0,.065-.062l0,0c.043,0,.059-.028.046-.069.135-.112.269-.225.405-.335.569-.463,1.082-.992,1.673-1.429.08.232.156.465.243.694a5.92,5.92,0,0,0,.432,1.119,3.234,3.234,0,0,0,.233.793c.561,1.7,1.137,3.4,1.682,5.109.8,2.506,1.617,5.008,2.175,7.582a21.989,21.989,0,0,1,.554,4.033,2.607,2.607,0,0,1-.862,2.262,1.058,1.058,0,0,1-.669.259,8.4,8.4,0,0,1-2.854-.572c-1.692-.543-3.3-1.291-4.952-1.942a7.064,7.064,0,0,0-5.933.011,5.175,5.175,0,0,0-2.039,2c-2.437,3.849-4.65,7.833-7.065,11.694-1.082,1.729-2.251,3.4-3.382,5.1a1.4,1.4,0,0,1-.76.579c-.081.026-.213.012-.223.153Z" transform="translate(-865.336 -180.517)" fill="#293c61"/>
      <path id="Trazado_105" data-name="Trazado 105" d="M866.6,228.141a6.189,6.189,0,0,1-1.195-2.7,1,1,0,0,0-.055-.162.039.039,0,0,0-.022-.016.36.36,0,0,0-.039.04v-.237c.03.013.05,0,.05-.03s-.02-.043-.05-.03v-1.893c.03.013.05,0,.05-.03s-.02-.043-.05-.029v-.3c.145.091.1-.058.109-.1.06-.268.1-.542.162-.809a17.957,17.957,0,0,1,2.432-5.434,37.166,37.166,0,0,1,3.58-4.654,2.659,2.659,0,0,0,.534-.628c.151-.046.227-.181.327-.284a55.947,55.947,0,0,1,4.805-4.421c.951-.781,1.943-1.51,2.913-2.267l.933-.66c.051-.031.1-.059.15-.093a74.33,74.33,0,0,1,8.907-5.31c.682-.344,1.366-.683,2.05-1.024a7.527,7.527,0,0,0,1.042-.464c.082-.03.167-.055.247-.091q1.787-.789,3.62-1.466a57.116,57.116,0,0,1,6.233-1.905l.793-.181c1.218-.229,2.433-.461,3.666-.6a25.235,25.235,0,0,1,5.128-.112,12.728,12.728,0,0,1,4.487,1.143,6.407,6.407,0,0,1,3.721,4.556,8.861,8.861,0,0,1-.3,4.428c-.095.319-.216.631-.325.945a1.469,1.469,0,0,0-.9.087,13.138,13.138,0,0,0,.806-3.129,5.734,5.734,0,0,0-2.882-5.881,12.15,12.15,0,0,0-5.7-1.408,24.607,24.607,0,0,0-4.419.238,26.915,26.915,0,0,0-3.017.544l-.812.182a47.073,47.073,0,0,0-5.933,1.785c-1.112.405-2.222.818-3.293,1.329a8.691,8.691,0,0,0-1.031.454c-.091.034-.185.063-.273.1a72.3,72.3,0,0,0-10.009,5.57c-.721.478-1.448.947-2.123,1.492a8.158,8.158,0,0,0-.9.659,1.188,1.188,0,0,0-.152.086,57.048,57.048,0,0,0-5.435,4.6,19.869,19.869,0,0,0-1.706,1.759l-.574.612a29.743,29.743,0,0,0-4.257,5.821,13.211,13.211,0,0,0-1.745,5.153,5.837,5.837,0,0,0,.978,4.038Z" transform="translate(-865.291 -180.443)" fill="#a5c63c"/>
      <path id="Trazado_106" data-name="Trazado 106" d="M893.234,196.6a7.527,7.527,0,0,1-1.042.464c-.054-.08-.146-.09-.225-.124a55.322,55.322,0,0,0-8.959-3l-.832-.179c-1.1-.276-2.232-.405-3.351-.588-.172-.028-.169.1-.2.191a3.313,3.313,0,0,1-6.253.095.235.235,0,0,0-.326-.172,11.1,11.1,0,0,0-2.692.929,5.773,5.773,0,0,0-3.22,5.849,12.751,12.751,0,0,0,1.328,4.433,29.448,29.448,0,0,0,4.648,6.623,2.659,2.659,0,0,1-.534.628,31.773,31.773,0,0,1-3.382-4.322,16.847,16.847,0,0,1-2.8-6.661c-.008-.05,0-.145-.1-.095v-.355l.038,0-.038-.055v-1.953c.107.056.1-.039.106-.09a6.622,6.622,0,0,1,4.572-5.17,9.96,9.96,0,0,1,1.954-.543c.174-.03.233-.1.238-.285a3.322,3.322,0,0,1,6.617-.316c.062.47.063.462.662.548,1,.144,2.008.306,3,.517l.826.183c.057.018.112.041.17.054a52.264,52.264,0,0,1,6.983,2.206C891.368,195.781,892.323,196.14,893.234,196.6Z" transform="translate(-865.291 -180.436)" fill="#af94b6"/>
      <path id="Trazado_107" data-name="Trazado 107" d="M883.3,193.133l-.826-.183a27.161,27.161,0,0,1,4.5-8.913,10.224,10.224,0,0,1,3.9-3.12,6.361,6.361,0,0,1,1.234-.383c.067-.013.066-.017.077-.116h.3c-.017.035,0,.049.034.05s.077,0,.085-.05h1.42c.04.052.079.1.119,0h.3c-.1.071-.011.095.034.1A9.284,9.284,0,0,1,899.9,184.3a25.634,25.634,0,0,1,3.716,7.03c.2.533.367,1.076.549,1.614l-.793.181c-.017-.046-.036-.091-.051-.138a29.239,29.239,0,0,0-3.261-7.066,11.973,11.973,0,0,0-3.509-3.662,5.622,5.622,0,0,0-4.273-.9,7.421,7.421,0,0,0-3.926,2.37A24.274,24.274,0,0,0,883.3,193.133Z" transform="translate(-865.326 -180.419)" fill="#3f96d1"/>
      <path id="Trazado_108" data-name="Trazado 108" d="M919.629,203.439a1.469,1.469,0,0,1,.9-.087,1.534,1.534,0,0,1,.085,1.177,27.028,27.028,0,0,1-1.711,5.5q-.9,2.147-1.788,4.3l-.374.917c-.324.757-.656,1.512-.971,2.272q-2.335,5.618-4.663,11.24c-.591.437-1.1.966-1.673,1.429-.136.111-.27.224-.405.335-.029.014-.071.02-.046.069l0,0c-.05-.009-.082,0-.065.062l.006,0c-.075-.04-.094.021-.12.068l0,0-.114.032-.067.09v0a.364.364,0,0,0-.212.095,27.451,27.451,0,0,1-3.511,2.009,29.389,29.389,0,0,1-8.727,2.641,36.132,36.132,0,0,1-5.065.358.727.727,0,0,0-.32.037h-.129a1.79,1.79,0,0,0-.261-.034,25.638,25.638,0,0,1-4.5-.366,16.5,16.5,0,0,1-4.954-1.594c-.389-.2-.732-.491-1.143-.658l.005,0c0-.044-.026-.059-.066-.059l-.486-.472a.533.533,0,0,1,.256.057,6.674,6.674,0,0,0,2.479.473,20.241,20.241,0,0,0,2.357-.1,23.933,23.933,0,0,0,4.729-.987,23.02,23.02,0,0,0,6.519-3.281,23.279,23.279,0,0,0,3.986-3.675,21.751,21.751,0,0,0,3.377-5.8,2.18,2.18,0,0,0,.271-1.017h0l.067-.055c.092-.071.184-.144.277-.214.774-.58,1.562-1.143,2.282-1.791a9.13,9.13,0,0,0,.88-.724c.04-.029.082-.054.119-.085,1.231-1.044,2.416-2.139,3.578-3.258.68-.655,1.352-1.315,2.028-1.974a5,5,0,0,0,.575-.588c.09-.006.132-.082.185-.135,1.306-1.3,2.606-2.608,3.878-3.942A9.272,9.272,0,0,1,919.629,203.439Z" transform="translate(-865.319 -180.465)" fill="#f80"/>
      <path id="Trazado_109" data-name="Trazado 109" d="M916.81,215.265l.374-.917a20.93,20.93,0,0,1,3.856,7.3,8.093,8.093,0,0,1,0,4.683,6.477,6.477,0,0,1-3.713,3.93,13.082,13.082,0,0,1-4.447,1.064c-.264.021-.53.038-.8.056a3.275,3.275,0,0,1-.232-.793,17.652,17.652,0,0,0,3.129-.394,8.3,8.3,0,0,0,3.62-1.7,5.7,5.7,0,0,0,1.851-5.559A17.483,17.483,0,0,0,916.81,215.265Z" transform="translate(-865.385 -180.488)" fill="#a562a4"/>
      <g id="Grupo_83" data-name="Grupo 83" transform="translate(67.669 26.442)">
        <path id="Trazado_110" data-name="Trazado 110" d="M1054.689,215.449c-.376-.073-.609.235-.907.36-.417.176-.581.085-.608-.366-.075-1.263-.179-2.526-.252-3.789a3.255,3.255,0,0,0-2.389-3.025,2.276,2.276,0,0,0-2.572.892,8.744,8.744,0,0,0-1.3,3.595,6.445,6.445,0,0,0,2.24,6.447,24.023,24.023,0,0,1,3.582,3.7c1.5,2.151,2.121,4.444.859,6.93a5.175,5.175,0,0,1-5.331,2.69,2.992,2.992,0,0,1-2.016-1.477,7.407,7.407,0,0,1-1-4.682,1.372,1.372,0,0,1,1.766-1.073c.267.091.163.288.171.444.047.994.032,1.994.133,2.981a3.352,3.352,0,0,0,1.805,2.491c.555.333,1.189-.039,1.655-.476a4.945,4.945,0,0,0,1.6-3.341,6.21,6.21,0,0,0-1.991-4.8c-1.071-1.135-2.242-2.174-3.31-3.31a8.608,8.608,0,0,1-.757-10.345,4.728,4.728,0,0,1,4.445-2.095,4.147,4.147,0,0,1,3.7,2.942c.125.3.123.668.394.908a.156.156,0,0,0,.042-.035.42.42,0,0,0,.041-.054v.408c-.031.006-.088.007-.091.02-.017.07,0,.124.091.116v3.128c-.117.019-.118.11-.115.2s.034.116.115.077Z" transform="translate(-933.324 -206.915)" fill="#3f96d1"/>
        <path id="Trazado_111" data-name="Trazado 111" d="M977.7,210.353q-2.738,3.916-5.475,7.832c-1.033,1.48-2.058,1.614-3.35.351a30.863,30.863,0,0,1-3.87-5.227c-.347-.522-.7-1.037-1.111-1.635a3.389,3.389,0,0,0-.206,1.532c-.114,4.029-.209,8.058-.315,12.086-.059,2.24-.141,4.48-.186,6.719-.01.523-.172.805-.724.826-.653.025-.826-.135-.836-.793-.091-6.026.122-12.046.4-18.063.064-1.4.106-2.805.171-4.207.044-.957.342-1.242,1.137-1.249.4,0,.556.234.723.507a69.711,69.711,0,0,0,5.872,8.225c.4.482.61.483.991.029a23.559,23.559,0,0,0,1.69-2.459c1.531-2.382,3.218-4.65,4.906-6.921a1.2,1.2,0,0,1,1.493-.555c.636.227.584.792.584,1.312q0,7.173-.011,14.348c0,3.014-.014,6.029.012,9.044,0,.559-.171.791-.724.785s-.808-.172-.811-.792c-.023-4.916-.085-9.832-.121-14.748-.017-2.3,0-4.608,0-6.912Z" transform="translate(-933.156 -206.915)" fill="#3f96d1"/>
        <path id="Trazado_112" data-name="Trazado 112" d="M1021.008,220.635c2.354,1.33,3.567,3.446,4.642,5.655a20.038,20.038,0,0,1,1.738,5.4,5.432,5.432,0,0,1,.042.744c.011.343.046.718-.421.794a.855.855,0,0,1-.97-.452,8.775,8.775,0,0,1-.65-1.632,44.269,44.269,0,0,0-1.906-5.42,9.3,9.3,0,0,0-2.327-3.3,4.986,4.986,0,0,0-2.171-1.046c-.558-.127-.634.073-.678.561-.312,3.475-.309,6.961-.39,10.444-.016.685-.262.851-.886.814-.674-.04-.743-.447-.734-.972.09-5.364.161-10.729.269-16.093.044-2.194.175-4.385.245-6.578a1.793,1.793,0,0,1,.7-1.466c2.059-1.588,6.736-1.543,8.8.034,2.491,1.9,3.828,7.187-.134,10.237a12.015,12.015,0,0,1-4.571,2.125C1021.439,220.522,1021.267,220.569,1021.008,220.635Zm-2.637-6.242c0,1.561.029,3.124-.015,4.683-.017.6.134.8.745.72a10.571,10.571,0,0,0,5.767-2.447,5.371,5.371,0,0,0-.132-8.481,2.017,2.017,0,0,0-1.035-.609,11.731,11.731,0,0,0-4.683.491.866.866,0,0,0-.657.958C1018.39,211.269,1018.372,212.831,1018.372,214.393Z" transform="translate(-933.266 -206.915)" fill="#3f96d1"/>
        <path id="Trazado_113" data-name="Trazado 113" d="M1042.676,217.123a29.264,29.264,0,0,1-.665,8.419,17.071,17.071,0,0,1-1.864,4.556c-2.329,3.813-6.995,2.626-8.6-.108a12.958,12.958,0,0,1-1.6-5.41,27.675,27.675,0,0,1,.8-10.49,9.66,9.66,0,0,1,3.171-5.175,6.721,6.721,0,0,1,5.908-1.177c1.556.354,2.529,1.772,2.734,3.742.04.382.11.764.113,1.147C1042.684,214.078,1042.676,215.529,1042.676,217.123Zm-1.808-1.315c0-1.133.025-2.265-.007-3.4a5.419,5.419,0,0,0-.791-2.834,2.1,2.1,0,0,0-1.927-1.051,4.653,4.653,0,0,0-3.076,1.236,7.991,7.991,0,0,0-2.141,3.413,25.312,25.312,0,0,0-1.066,11.448,11.17,11.17,0,0,0,1.609,4.984c1.435,2.141,3.491,2.116,4.871-.051a15.731,15.731,0,0,0,1.892-4.906A39.534,39.534,0,0,0,1040.867,215.808Z" transform="translate(-933.294 -206.916)" fill="#3f96d1"/>
        <path id="Trazado_114" data-name="Trazado 114" d="M964.888,241.958q0-2.244,0-4.486a2.449,2.449,0,0,1,1.663-2.65,3.159,3.159,0,0,1,3.682,1.11,15.806,15.806,0,0,1,1.044,2.2c.98,2.108,1.93,4.229,2.9,6.342a3.037,3.037,0,0,0,.416.69.735.735,0,0,0,1.286-.389,4.44,4.44,0,0,0,.025-.61c0-2.877.014-5.755-.012-8.632-.005-.512.135-.645.641-.638,1.56.019,1.56,0,1.56,1.538q0,4.045,0,8.089c0,1.668-.653,2.729-1.94,2.923-1.661.248-2.967.09-3.805-1.779-1.209-2.7-2.44-5.384-3.664-8.074a1.449,1.449,0,0,0-.4-.623.8.8,0,0,0-.832-.1c-.354.151-.383.453-.382.789.006,2.991-.011,5.982.016,8.972.005.545-.1.735-.689.718-1.511-.043-1.512-.011-1.512-1.514Z" transform="translate(-933.162 -206.971)" fill="#a5c63c"/>
        <path id="Trazado_115" data-name="Trazado 115" d="M939.477,215.416a4.829,4.829,0,0,0,1.566,3.22c1.083,1.157,2.252,2.231,3.359,3.366a7.585,7.585,0,0,1,2.5,6.468,5.235,5.235,0,0,1-5.439,4.485,3,3,0,0,1-2.56-1.669,7.938,7.938,0,0,1-.979-4.305,1.323,1.323,0,0,1,1.753-1.339c.317.061.253.26.257.449.016.769.061,1.542.03,2.31a3.654,3.654,0,0,0,1.765,3.11c.481.367,1.043.094,1.51-.218a5.151,5.151,0,0,0,1.838-4.632,7.514,7.514,0,0,0-2.249-4.016c-.873-.887-1.776-1.744-2.681-2.6a7.69,7.69,0,0,1-2.285-7.613,7.05,7.05,0,0,1,1.993-4.056c1.726-1.567,5.534-2.024,7.122,1.285a8.81,8.81,0,0,1,.536,5.506c-.1.546-.661.673-1.045.709-.413.039-.342-.476-.366-.792-.1-1.307-.16-2.618-.292-3.922a2.957,2.957,0,0,0-1.229-2.036,2.481,2.481,0,0,0-3.811.648C939.8,211.3,939.606,213.025,939.477,215.416Z" transform="translate(-933.107 -206.915)" fill="#3f96d1"/>
        <path id="Trazado_116" data-name="Trazado 116" d="M1034.272,247.331a9.463,9.463,0,0,1-2.536-.226,4.469,4.469,0,0,1-3.438-3.381,10.021,10.021,0,0,1-.053-4.969,4.574,4.574,0,0,1,4.037-3.753,14.349,14.349,0,0,1,4.335,0,4.628,4.628,0,0,1,4.073,3.967,10.276,10.276,0,0,1-.069,4.641c-.571,2.3-2.37,3.63-4.966,3.717C1035.248,247.342,1034.84,247.331,1034.272,247.331Zm.193-10.2v-.011c-.452,0-.905-.019-1.357,0a2.724,2.724,0,0,0-2.772,2.309,7.755,7.755,0,0,0-.057,3.033c.308,1.689.956,2.385,2.631,2.616a11.821,11.821,0,0,0,3.18-.016,2.657,2.657,0,0,0,2.43-2.275,7.618,7.618,0,0,0-.083-3.687,2.62,2.62,0,0,0-2.478-1.967C1035.463,237.1,1034.963,237.131,1034.465,237.131Z" transform="translate(-933.29 -206.971)" fill="#a5c63c"/>
        <path id="Trazado_117" data-name="Trazado 117" d="M953.052,241.1a2.859,2.859,0,0,1-1.66-2.685,3.1,3.1,0,0,1,3.007-3.43c2.325-.2,4.664-.047,7-.078.253,0,.339.084.368.347.2,1.836.19,1.855-1.654,1.855-1.609,0-3.217-.011-4.826.011a1.425,1.425,0,0,0-1.546,1.062,1.4,1.4,0,0,0,1.113,1.837,3.32,3.32,0,0,0,.873.095c1.812,0,3.625.009,5.437-.008.379,0,.5.1.507.491.036,1.484.051,1.483-1.412,1.483-1.587,0-3.173-.012-4.758,0-1.037.011-1.6.35-1.792,1.025-.336,1.151.392,2.02,1.739,2.032,1.9.016,3.806.02,5.709-.007.487-.008.662.091.655.623-.021,1.577.005,1.577-1.588,1.577s-3.173-.008-4.758,0a6.166,6.166,0,0,1-1.481-.165,2.976,2.976,0,0,1-2.548-2.4,3.071,3.071,0,0,1,1.361-3.54C952.852,241.194,952.912,241.167,953.052,241.1Z" transform="translate(-933.135 -206.971)" fill="#a5c63c"/>
        <path id="Trazado_118" data-name="Trazado 118" d="M1047.3,247.331c-1.11,0-2.221-.015-3.329.008-.408.009-.59-.055-.589-.538,0-1.659-.02-1.659,1.637-1.659,1.789,0,3.579.008,5.368,0a1.482,1.482,0,0,0,1.647-1.119,1.429,1.429,0,0,0-1.1-1.855,16.84,16.84,0,0,0-3.318-.122,7.369,7.369,0,0,1-2.088-.175c-1.861-.606-2.448-1.849-2.346-3.658.12-2.136,1.239-3.191,3.39-3.27,2.1-.079,4.217-.116,6.317,0,1.01.057.23,1.013.426,1.525.109.281.126.661-.454.652-2.015-.032-4.032-.028-6.048,0a1.4,1.4,0,0,0-1.359,1.963,1.454,1.454,0,0,0,1.519.908,34.062,34.062,0,0,1,4.138.1c2.278.346,3.274,1.6,3.165,3.937a3.35,3.35,0,0,1-3.578,3.3c-1.132.042-2.265.008-3.4.008Z" transform="translate(-933.321 -206.971)" fill="#a5c63c"/>
        <path id="Trazado_119" data-name="Trazado 119" d="M950.263,223.973a143.459,143.459,0,0,1,.746-15.727c.06-.645.253-1.009,1.01-1.018,1.628-.021,3.254-.135,4.881-.212a2.843,2.843,0,0,1,1.7.351c.252.158.5.383.389.72s-.433.283-.7.262a30.007,30.007,0,0,0-4.809.144.949.949,0,0,0-.994.946,25.414,25.414,0,0,0-.29,3.651c-.025,2.037-.011,4.076-.078,6.112-.022.669.217.793.8.737a6.415,6.415,0,0,1,2.429-.008c.152.043.3.083.455.127.241.07.426.222.386.479s-.238.344-.495.375a20.324,20.324,0,0,1-2.974.224c-.46-.014-.635.148-.65.625a64.218,64.218,0,0,0-.127,7.864c0,.045,0,.091.006.136.064,1.829.109,1.874,1.9,1.874,1.45,0,2.9-.007,4.35,0,.355,0,.805-.141.835.494.028.583-.333.563-.74.615a53.761,53.761,0,0,1-6.647.226,1.146,1.146,0,0,1-1.179-.929,6.308,6.308,0,0,1-.216-1.747C950.266,228.188,950.263,226.08,950.263,223.973Z" transform="translate(-933.132 -206.915)" fill="#3f96d1"/>
        <path id="Trazado_120" data-name="Trazado 120" d="M1004.989,224.852c-.038-3.187.02-6.966.261-10.739.132-2.054.346-4.1.537-6.15.038-.408.186-.688.712-.7,1.808-.051,3.615-.161,5.421-.242a2.4,2.4,0,0,1,1.481.394.6.6,0,0,1,.314.677c-.091.278-.373.286-.632.265a28.489,28.489,0,0,0-4.872.142.916.916,0,0,0-.972.883,35.667,35.667,0,0,0-.363,5.407c-.021,1.518.026,3.037-.021,4.553-.017.555.185.633.656.6a7.568,7.568,0,0,1,2.563-.015c.13.036.261.067.39.108.248.079.495.207.473.495s-.289.348-.554.382a18.145,18.145,0,0,1-2.836.219c-.471-.014-.724.109-.746.615a59.827,59.827,0,0,0-.043,8.951c.086.805.25.935,1.057.936q2.548,0,5.1,0c.4,0,.875-.088.89.537.013.566-.413.528-.8.577a53.2,53.2,0,0,1-6.577.224,1.123,1.123,0,0,1-1.2-.893,5.894,5.894,0,0,1-.236-1.6C1004.986,228.8,1004.989,227.122,1004.989,224.852Z" transform="translate(-933.243 -206.915)" fill="#3f96d1"/>
        <path id="Trazado_121" data-name="Trazado 121" d="M997.743,242.466a34.6,34.6,0,0,1,.113-4.387,3.578,3.578,0,0,1,3.561-3.117c1.877-.077,3.759-.037,5.64-.063.354,0,.451.119.464.47.065,1.737.076,1.736-1.649,1.736-1.247,0-2.493-.023-3.738.011a2.218,2.218,0,0,0-2.213,2.983c.1.394.392.236.6.237,2.085.013,4.169.024,6.253,0,.5-.007.653.11.643.632-.03,1.47,0,1.47-1.485,1.47-1.789,0-3.58.026-5.369-.015-.563-.013-.666.178-.652.684.033,1.245,0,2.493.019,3.738.007.379-.1.493-.488.5-1.7.031-1.7.046-1.7-1.662Z" transform="translate(-933.229 -206.971)" fill="#a5c63c"/>
        <path id="Trazado_122" data-name="Trazado 122" d="M1022.636,234.9c.861,0,1.722.022,2.583-.009.453-.017.564.143.564.58,0,1.632.019,1.632-1.621,1.632h-2.99c-2.427,0-3.293.749-3.619,3.16a6.973,6.973,0,0,0,.139,2.564,2.81,2.81,0,0,0,3.074,2.307c1.472.02,2.945.024,4.417-.007.485-.01.6.145.6.613-.01,1.588.008,1.608-1.58,1.583a31.408,31.408,0,0,1-4.409-.1,4.626,4.626,0,0,1-4.277-4.061,9.611,9.611,0,0,1,.191-4.83,4.581,4.581,0,0,1,4.279-3.381c.88-.052,1.765-.009,2.649-.009Z" transform="translate(-933.264 -206.971)" fill="#a5c63c"/>
        <path id="Trazado_123" data-name="Trazado 123" d="M940.39,234.9c.883,0,1.766.013,2.65-.006.351-.008.453.1.465.463.059,1.745.071,1.744-1.7,1.744-1.064,0-2.129-.007-3.193,0-1.961.018-2.938.815-3.237,2.741a7.767,7.767,0,0,0,.1,3.037,2.816,2.816,0,0,0,3.047,2.251q2.208.033,4.417,0c.439-.008.569.113.57.562,0,1.637.018,1.654-1.588,1.632a30.678,30.678,0,0,1-4.273-.085,4.842,4.842,0,0,1-4.489-4.86,11,11,0,0,1,.263-3.9,4.68,4.68,0,0,1,4.323-3.518c.879-.053,1.764-.009,2.648-.009Z" transform="translate(-933.098 -206.971)" fill="#a5c63c"/>
        <path id="Trazado_124" data-name="Trazado 124" d="M995.823,218.123c0-3.261.013-6.523-.012-9.784,0-.58.149-.819.756-.8.867.026,1.032.1,1.033.784q.011,5.709,0,11.418c0,2.152,0,4.3-.025,6.455q-.022,2.307-.106,4.614c-.018.471.151.585.587.533a20.766,20.766,0,0,1,3.177-.253c.458.016,1.068.029,1.115.519.046.471-.6.448-.968.536a16.032,16.032,0,0,1-4.622.594c-.553-.03-.755-.22-.772-.762Q995.774,225.05,995.823,218.123Z" transform="translate(-933.225 -206.916)" fill="#3f96d1"/>
        <path id="Trazado_125" data-name="Trazado 125" d="M992.305,232.086a16.4,16.4,0,0,1-4.61.661c-.7-.014-.9-.258-.911-.9-.054-2.239-.194-4.479-.207-6.718-.031-5.576-.01-11.151-.01-16.727,0-.818.043-.857.9-.854.819,0,.885.066.884.894q-.017,10.946-.036,21.891c0,1.054-.01,1.009,1.068.933a8.676,8.676,0,0,1,3.432-.025A1.822,1.822,0,0,1,992.305,232.086Z" transform="translate(-933.206 -206.916)" fill="#3f96d1"/>
        <path id="Trazado_126" data-name="Trazado 126" d="M983.972,242.233c0-1.494-.028-2.989.014-4.482.016-.558-.171-.681-.683-.656-.813.039-1.63,0-2.444.016-.349.008-.461-.112-.481-.464-.1-1.743-.108-1.742,1.634-1.742,2.377,0,4.754.012,7.132-.01.494,0,.707.078.694.65-.036,1.561-.005,1.561-1.542,1.561-.475,0-.953.034-1.425-.009-.53-.048-.69.127-.685.671.026,2.943,0,5.886.026,8.829.006.577-.112.772-.733.751-1.506-.049-1.507-.013-1.507-1.515Z" transform="translate(-933.193 -206.971)" fill="#a5c63c"/>
        <path id="Trazado_127" data-name="Trazado 127" d="M983.988,217.533c.029,3.691.057,7.382-.156,11.069-.077,1.331-.239,2.658-.338,3.987-.031.4-.184.576-.591.522s-.757-.1-.755-.65c.009-4.188.011-8.377.136-12.564.08-2.67.143-5.339.219-8.009.034-1.175.1-2.349.116-3.525.007-.43.186-.663.6-.631.371.029.771.052.766.629-.016,1.834,0,3.67.005,5.5Q983.991,215.7,983.988,217.533Z" transform="translate(-933.197 -206.916)" fill="#3f96d1"/>
        <path id="Trazado_128" data-name="Trazado 128" d="M1012.509,241.07c0,1.9-.012,3.8.009,5.705.005.437-.114.568-.565.568-1.647,0-1.647.015-1.647-1.656,0-3.373.012-6.746-.013-10.119,0-.536.143-.686.676-.678,1.539.023,1.54,0,1.54,1.561Z" transform="translate(-933.254 -206.971)" fill="#a5c63c"/>
        <path id="Trazado_129" data-name="Trazado 129" d="M946.39,241.141c0-1.879.015-3.758-.011-5.637-.006-.472.124-.614.6-.613,1.574,0,1.574-.018,1.574,1.524,0,3.441-.009,6.882.011,10.323,0,.468-.11.61-.594.6-1.582-.015-1.582.006-1.582-1.584Z" transform="translate(-933.125 -206.971)" fill="#a5c63c"/>
        <path id="Trazado_130" data-name="Trazado 130" d="M994.333,241.145c0,1.879-.015,3.758.01,5.637.006.45-.127.561-.565.56-1.634,0-1.634.014-1.634-1.59,0-3.4.012-6.79-.013-10.185,0-.535.14-.684.673-.675,1.528.027,1.529,0,1.529,1.5Z" transform="translate(-933.217 -206.971)" fill="#a5c63c"/>
        <path id="Trazado_131" data-name="Trazado 131" d="M992.315,232.132a1.822,1.822,0,0,0,.508-.844c.3-.969,1.035-1.089,1.9-.985a7.955,7.955,0,0,0,.859.005,26.529,26.529,0,0,0-1.5,2.673,1.9,1.9,0,0,1-2.351,1.3,2.635,2.635,0,0,0-.318-.017C991.573,233.478,992.223,232.919,992.315,232.132Z" transform="translate(-933.216 -206.962)" fill="#fff"/>
      </g>
      <path id="Trazado_132" data-name="Trazado 132" d="M879.092,232.623a2.414,2.414,0,0,1-.931-1.324l-.005-.82a2.642,2.642,0,0,1,1.452-1.64,18.344,18.344,0,0,1,2.1-.878l.77-.232c1.8-.463,3.621-.872,5.4-1.423a24.355,24.355,0,0,0,2.363-.783l1.071-.373a14.37,14.37,0,0,0,1.96-.8,2.855,2.855,0,0,1-1.047-.323c-.977-.488-1.913-1.051-2.844-1.62a5.345,5.345,0,0,1-.964-.777,10,10,0,0,1-2.746-5.126,7.339,7.339,0,0,1,.166-4.076,6.307,6.307,0,0,1,6.953-3.883,8.724,8.724,0,0,1,4.072,1.753,10.757,10.757,0,0,1,3.523,4.361,8.105,8.105,0,0,1,.305,5.349,8.447,8.447,0,0,1-.846,2.1,23.348,23.348,0,0,1-2.786,3.63,24.9,24.9,0,0,1-3.939,3.476,19.047,19.047,0,0,1-11.384,3.621A25.248,25.248,0,0,1,879.092,232.623Z" transform="translate(-865.317 -180.476)" fill="#ffc700"/>
      <path id="Trazado_133" data-name="Trazado 133" d="M879.818,233.365c.411.167.753.453,1.143.658a16.5,16.5,0,0,0,4.954,1.594,25.638,25.638,0,0,0,4.5.366,1.79,1.79,0,0,1,.261.034h.129a.727.727,0,0,1,.32-.037,36.132,36.132,0,0,0,5.065-.358,29.389,29.389,0,0,0,8.727-2.641,27.451,27.451,0,0,0,3.511-2.009.364.364,0,0,1,.212-.095l0,.062,0,0a.058.058,0,0,0-.064.064l0,0a.056.056,0,0,0-.063.063l0,0a.058.058,0,0,0-.064.064l.005,0a.058.058,0,0,0-.064.064l.005,0a.058.058,0,0,0-.064.064l.005,0-.067.049c-.414.413-.835.819-1.241,1.24a111.081,111.081,0,0,0-7.627,8.485A55.714,55.714,0,0,0,892.7,252.23a113.326,113.326,0,0,0-5.185,14.531c-.092.3-.167.6-.25.908a.969.969,0,0,1-.226-.728,22.109,22.109,0,0,1,.154-3.946c.138-1.439.338-2.871.552-4.3q.4-2.7.806-5.4t.793-5.366q.371-2.494.744-4.986c.029-.195.049-.389.074-.584-.012-.035-.012-.085-.036-.1q-.925-.662-1.855-1.316l.008.006a.451.451,0,0,0-.261-.193c-.846-.693-1.7-1.377-2.536-2.079a72.09,72.09,0,0,1-5.639-5.264A.245.245,0,0,1,879.818,233.365Z" transform="translate(-865.32 -180.521)" fill="#a6c73c"/>
      <path id="Trazado_134" data-name="Trazado 134" d="M866.6,228.21l.529-.718c.059-.051.118-.1.176-.154a3.323,3.323,0,0,1,5.41,1.487,3.739,3.739,0,0,1,.1,1.631l-.259.771a3.34,3.34,0,0,1-2.225,1.783A3.169,3.169,0,0,1,867.071,232a3.212,3.212,0,0,1-.6-3.464C866.514,228.427,866.56,228.319,866.6,228.21Z" transform="translate(-865.293 -180.512)" fill="#b8babc"/>
      <path id="Trazado_135" data-name="Trazado 135" d="M879.094,232.643a25.248,25.248,0,0,0,2.646.217,19.047,19.047,0,0,0,11.384-3.621,24.9,24.9,0,0,0,3.939-3.476,23.348,23.348,0,0,0,2.786-3.63,8.447,8.447,0,0,0,.846-2.1c.122.016.2-.073.287-.128.755-.471,1.509-.948,2.262-1.422a2.18,2.18,0,0,1-.271,1.017,21.751,21.751,0,0,1-3.377,5.8,23.279,23.279,0,0,1-3.986,3.675,23.02,23.02,0,0,1-6.519,3.281,23.933,23.933,0,0,1-4.729.987,20.241,20.241,0,0,1-2.357.1,6.674,6.674,0,0,1-2.479-.473.533.533,0,0,0-.256-.057A.346.346,0,0,1,879.094,232.643Z" transform="translate(-865.319 -180.496)" fill="#db7010"/>
      <path id="Trazado_136" data-name="Trazado 136" d="M872.568,231.236l.259-.771a18.723,18.723,0,0,0,1.933.174,27.172,27.172,0,0,0,3.384-.116l.005.82a26.42,26.42,0,0,1-4.063.072A12.127,12.127,0,0,1,872.568,231.236Z" transform="translate(-865.306 -180.521)" fill="#a5c63c"/>
      <path id="Trazado_137" data-name="Trazado 137" d="M888.292,240.965q.928.657,1.855,1.316c.024.018.024.068.036.1a9.026,9.026,0,0,1-1.827-1.3C888.321,241.051,888.275,241.025,888.292,240.965Z" transform="translate(-865.338 -180.542)" fill="#3f96d1"/>
      <path id="Trazado_138" data-name="Trazado 138" d="M888.038,240.778a.451.451,0,0,1,.261.193C888.16,240.978,888.126,240.842,888.038,240.778Z" transform="translate(-865.337 -180.541)" fill="#3f96d1"/>
      <path id="Trazado_139" data-name="Trazado 139" d="M879.757,233.315c.04,0,.065.015.066.059Z" transform="translate(-865.32 -180.526)" fill="#a6c73c"/>
      <path id="Trazado_140" data-name="Trazado 140" d="M908.762,230.793l.114-.032c.044.095-.048.114-.088.161l-.041-.05Z" transform="translate(-865.379 -180.521)" fill="#a562a4"/>
      <path id="Trazado_141" data-name="Trazado 141" d="M908.873,230.764c.026-.047.045-.108.12-.068C908.97,230.749,908.946,230.8,908.873,230.764Z" transform="translate(-865.379 -180.521)" fill="#a562a4"/>
      <path id="Trazado_142" data-name="Trazado 142" d="M908.4,231.238a.058.058,0,0,1,.064-.064C908.469,231.225,908.441,231.24,908.4,231.238Z" transform="translate(-865.378 -180.522)" fill="#a562a4"/>
      <path id="Trazado_143" data-name="Trazado 143" d="M908.335,231.283l.067-.049C908.4,231.282,908.373,231.288,908.335,231.283Z" transform="translate(-865.378 -180.522)" fill="#a562a4"/>
      <path id="Trazado_144" data-name="Trazado 144" d="M908.987,230.7c-.017-.061.015-.071.065-.062A.058.058,0,0,1,908.987,230.7Z" transform="translate(-865.38 -180.521)" fill="#a562a4"/>
      <path id="Trazado_145" data-name="Trazado 145" d="M909.047,230.644c-.025-.049.017-.055.046-.069C909.106,230.616,909.09,230.639,909.047,230.644Z" transform="translate(-865.38 -180.521)" fill="#a562a4"/>
      <path id="Trazado_146" data-name="Trazado 146" d="M908.515,231.12a.058.058,0,0,1,.064-.064C908.587,231.106,908.565,231.127,908.515,231.12Z" transform="translate(-865.379 -180.522)" fill="#a562a4"/>
      <path id="Trazado_147" data-name="Trazado 147" d="M908.694,230.94l0-.062v0a.228.228,0,0,1,.052-.011l.041.05C908.759,230.944,908.731,230.967,908.694,230.94Z" transform="translate(-865.379 -180.521)" fill="#a562a4"/>
      <path id="Trazado_148" data-name="Trazado 148" d="M908.456,231.179a.058.058,0,0,1,.064-.064C908.527,231.165,908.506,231.186,908.456,231.179Z" transform="translate(-865.379 -180.522)" fill="#a562a4"/>
      <path id="Trazado_149" data-name="Trazado 149" d="M908.634,231a.058.058,0,0,1,.064-.064C908.7,230.987,908.684,231.008,908.634,231Z" transform="translate(-865.379 -180.521)" fill="#a562a4"/>
      <path id="Trazado_150" data-name="Trazado 150" d="M908.575,231.06a.056.056,0,0,1,.063-.063Q908.65,231.072,908.575,231.06Z" transform="translate(-865.379 -180.522)" fill="#a562a4"/>
      <path id="Trazado_151" data-name="Trazado 151" d="M894.412,197.086c1.2.6,2.412,1.18,3.6,1.813a75.615,75.615,0,0,1,7.33,4.484c.073.05.148.1.222.144q.457.325.912.651c1.231.933,2.465,1.863,3.641,2.868,1.018.869,2.025,1.751,2.966,2.705a5,5,0,0,1-.575.588c-1.125-1.072-2.27-2.122-3.476-3.1-.792-.645-1.575-1.3-2.423-1.875a6.439,6.439,0,0,0-.9-.66c-1.012-.78-2.084-1.474-3.159-2.164a72.731,72.731,0,0,0-8.987-4.905c-.062-.029-.122-.062-.183-.093A8.691,8.691,0,0,1,894.412,197.086Z" transform="translate(-865.348 -180.453)" fill="#a562a4"/>
      <path id="Trazado_152" data-name="Trazado 152" d="M872.743,211.84a56.064,56.064,0,0,0,7.161,6.333,1,1,0,0,0,.128.071,6,6,0,0,0,.9.656c.744.6,1.549,1.11,2.34,1.64.588.393,1.193.762,1.789,1.143.3.195.387.425.233.656-.142.213-.387.234-.677.058-1.2-.729-2.36-1.527-3.529-2.307l-.926-.659c-1.081-.836-2.177-1.654-3.228-2.528a55.816,55.816,0,0,1-4.768-4.45Z" transform="translate(-865.305 -180.483)" fill="#a562a4"/>
      <path id="Trazado_153" data-name="Trazado 153" d="M880.95,218.885a6,6,0,0,1-.9-.656c-.066-1.1-.146-2.2-.195-3.3-.072-1.592-.1-3.185-.054-4.779.034-1.043.068-2.085.137-3.126.037-.549.077-1.1.116-1.647a8.158,8.158,0,0,1,.9-.659l-.192,2.676c-.067.941-.094,1.884-.121,2.828-.042,1.495-.011,2.99.038,4.484C880.719,216.1,880.845,217.494,880.95,218.885Z" transform="translate(-865.32 -180.468)" fill="#3f96d1"/>
      <path id="Trazado_154" data-name="Trazado 154" d="M906.493,204.171q-.455-.326-.912-.651a56.623,56.623,0,0,0-1.869-9.388c-.016-.057-.035-.112-.053-.168l.812-.182a54.823,54.823,0,0,1,1.716,7.872C906.311,202.49,906.393,203.332,906.493,204.171Z" transform="translate(-865.369 -180.446)" fill="#3f96d1"/>
      <path id="Trazado_155" data-name="Trazado 155" d="M880.183,204.175c.129-1.307.32-2.608.53-3.9a.452.452,0,0,1,.576-.4c.245.064.335.294.268.587-.182.783-.261,1.585-.373,2.38-.032.224-.045.449-.068.674Z" transform="translate(-865.321 -180.458)" fill="#3f96d1"/>
      <path id="Trazado_156" data-name="Trazado 156" d="M883.042,193.955c-.271.888-.509,1.787-.731,2.69-.016.067-.031.134-.053.2a.416.416,0,1,1-.8-.231c.217-.955.485-1.9.75-2.836Z" transform="translate(-865.324 -180.446)" fill="#3f96d1"/>
      <path id="Trazado_157" data-name="Trazado 157" d="M906.63,205.377c.066,1.07.151,2.14.2,3.21.062,1.475.12,2.951.059,4.428-.036.885-.054,1.77-.08,2.657a9.13,9.13,0,0,1-.88.724c.046-1.19.108-2.378.135-3.568.03-1.378,0-2.757-.065-4.135-.049-1.052-.134-2.1-.2-3.152-.018-.274-.038-.549-.058-.824A6.439,6.439,0,0,1,906.63,205.377Z" transform="translate(-865.373 -180.468)" fill="#3f96d1"/>
      <path id="Trazado_158" data-name="Trazado 158" d="M890.825,236.028h0Z" transform="translate(-865.343 -180.532)" fill="#a5c63c"/>
      <path id="Trazado_159" data-name="Trazado 159" d="M908.747,230.872a.228.228,0,0,0-.052.011l.067-.09Z" transform="translate(-865.379 -180.521)" fill="#a6c73c"/>
      <path id="Trazado_160" data-name="Trazado 160" d="M903.293,218.483l.067-.055Z" transform="translate(-865.368 -180.496)" fill="#cc7d30"/>
      <path id="Trazado_161" data-name="Trazado 161" d="M880.182,219.445l.926.659a53.213,53.213,0,0,0,.932,5.727c.137.643.3,1.28.446,1.92l-.77.232a18.286,18.286,0,0,1-.529-2.137c-.412-1.892-.706-3.805-.941-5.726C880.218,219.9,880.2,219.67,880.182,219.445Z" transform="translate(-865.321 -180.498)" fill="#3f96d1"/>
      <path id="Trazado_162" data-name="Trazado 162" d="M890.265,225.553c-.8-.378-1.571-.8-2.341-1.226a.431.431,0,0,1-.188-.6.4.4,0,0,1,.563-.146q1.521.795,3.037,1.6Z" transform="translate(-865.336 -180.506)" fill="#a562a4"/>
    </g>
  </g>
</svg>
